<?xml version="1.0" encoding="utf-8" ?>
<svg baseProfile="full" height="640" version="1.1" width="800" xmlns="http://www.w3.org/2000/svg" xmlns:ev="http://www.w3.org/2001/xml-events" xmlns:xlink="http://www.w3.org/1999/xlink"><defs /><polyline points="246,133 244,136 242,140 241,143 239,148 238,151 237,155 236,158 235,162 234,167 233,170 231,175 230,179 230,184 231,188 232,191 233,194 240,200 245,201 251,200 261,200 264,201 269,203 272,205 275,206 280,207 283,208 289,208 292,207 300,206 306,207 312,211 316,215 319,220 322,224 323,227 324,235 326,240 329,241 332,243 335,246 337,250 338,254 339,257 340,260 341,266 342,270 343,276 343,287 342,290 341,293 340,296 339,299 338,302 337,306 336,309 331,315 324,322 321,324 318,323 317,320 316,316 315,313 311,308 308,307 304,308 296,314 292,316 288,316 285,315 277,309 273,309 262,320 261,324 262,327 265,329 268,331 272,334 272,337 268,341 264,346 264,351 270,356 270,359 267,361 266,364 270,367 275,368 278,369 281,371 278,377 278,382 281,387 287,394 287,401 286,404 285,407 283,410 282,413 282,417 286,419 289,420 300,420 304,420 309,421 317,422 350,422 378,422 390,422 408,422 412,422 425,421 428,420 431,418 430,414 425,409 421,406 417,403 413,400 410,398 407,396 404,394 401,392 398,390 395,388 392,386 387,382 387,378 389,374 391,371 394,367 396,364 398,360 400,357 401,354 403,351 404,348 406,345 407,342 409,339 411,336 413,333 415,330 417,327 420,322 423,317 425,313 427,310 428,307 431,301 433,298 434,295 435,292 436,289 437,286 442,283 458,268 463,265 466,263 471,258 473,255 474,252 475,249 476,246 477,243 478,240 480,236 481,233 482,230 483,227 484,224 485,221 486,218 486,210 485,207 485,203 485,196 485,187 486,183 485,179 483,174 482,171 482,168 483,165 483,161 481,156 479,152 476,149 470,142 470,136 472,132 472,127 467,120 464,116 462,113 460,110 458,107 456,104 452,98 446,95 443,94 439,92 434,89 431,87 428,86 423,85 419,84 415,82 410,79 407,78 400,77 396,75 389,70 386,69 380,68 372,68 367,71 364,73 360,75 357,76 344,76 338,73 335,72 331,73 325,77 321,79 317,78 313,78 308,82 303,85 296,91 291,94 287,96 278,106 274,108 271,109 268,111 262,117 260,120 258,123 253,128 250,130 258,257 255,259 253,263 254,267 261,275 264,279 266,282 268,285 272,289 276,291 279,291 284,289 296,287 294,282 287,276 283,274 278,269 276,266 266,257 249,325 246,325 243,326 237,327 231,328 228,329 224,334 224,338 227,341 232,344 235,345 238,347 242,350 245,352 249,353 255,347 255,340 254,333 253,330 289,357 289,360 292,355 298,360 299,364 296,366 171,329 167,333 167,337 166,343 165,359 164,362 158,365 142,365 138,364 130,364 126,365 123,366 118,370 118,374 121,378 121,381 120,384 118,387 114,387 111,383 109,380 107,375 104,373 101,374 96,375 93,376 90,377 87,378 83,379 76,380 72,382 68,385 69,390 69,395 64,400 60,402 57,404 54,409 50,412 45,416 40,420 36,422 25,422 21,421 19,416 30,404 34,402 37,401 45,400 48,398 47,393 47,390 51,387 59,386 62,384 61,380 61,376 62,373 65,368 68,365 75,359 79,355 83,351 87,348 95,341 100,338 104,335 107,333 110,331 115,328 118,326 124,323 129,321 133,319 136,318 139,317 144,315 147,314 152,312 156,310 161,309 163,312 164,315 165,323 166,326 163,409 161,412 162,417 167,418 169,415 168,411 112,406 109,404 111,410 93,415 91,410 88,410 87,413 80,412 79,415 76,415 72,414 69,415 66,417 61,417 59,411 62,409 65,407 68,405 71,404 75,404 78,408 461,413 462,410 463,407 465,404 467,400 469,397 476,391 482,393 482,397 480,401 479,404 478,408 477,412 476,416 475,419 471,422 466,422 463,420 461,417 514,388 513,385 514,382 518,380 527,380 530,381 533,385 534,391 539,397 543,402 543,408 542,411 539,412 535,412 532,409 530,406 528,403 523,398 517,392" stroke="black" stroke-width="3" style="fill-opacity:0;" /></svg>