<?xml version="1.0" encoding="utf-8" ?>
<svg baseProfile="tiny" height="100%" version="1.2" width="100%" xmlns="http://www.w3.org/2000/svg" xmlns:ev="http://www.w3.org/2001/xml-events" xmlns:xlink="http://www.w3.org/1999/xlink"><defs /><polyline points="131,332 133,331 134,331 139,331 140,331 143,332 145,333 146,333 147,334 148,334 149,335 151,336 153,337 154,338 156,339 159,340 161,340 167,340 169,341 170,341 172,342 174,343 176,344 178,345 180,346 182,347 184,348 186,349 188,350 191,352 192,353 195,355 197,356 199,357 210,357 213,356 215,352 222,344 223,343 228,338 232,335 234,332 235,330 236,328 237,326 238,324 239,322 240,320 244,316 246,315 247,315 250,316 253,319 253,327 253,328 252,332 252,333 251,336 250,338 249,340 248,341 246,344 245,345 244,347 243,348 240,352 239,353 235,358 234,359 233,361 232,362 231,364 230,366 230,367 229,372 229,373 228,378 228,379 227,383 227,384 226,388 226,389 225,392 225,393 224,395 224,396 223,399 223,400 222,403 222,404 221,406 221,407 220,410 220,411 219,413 218,415 217,417 214,420 212,421 175,421 171,418 170,415 170,414 169,405 169,404 168,400 168,399 167,395 167,394 166,390 166,389 165,386 165,385 164,383 163,381 162,379 161,377 160,374 159,372 158,370 158,369 157,368 157,367 156,366 155,364 154,362 152,359 151,357 150,356 148,353 147,352 144,348 143,347 140,344 139,343 137,342 135,341 133,340 130,339 129,336 129,335 204,341 205,338 208,336 208,341 212,339 213,335 294,376 294,377 295,375 296,373 297,371 298,370 305,363 306,362 310,359 311,358 314,356 317,354 319,353 321,352 322,351 323,351 324,350 325,350 327,349 329,348 331,347 332,347 333,346 335,345 337,344 338,343 340,342 342,341 343,340 345,339 347,338 349,337 350,336 352,335 355,333 356,332 365,323 366,321 366,318 366,317 365,313 365,312 364,309 364,308 363,305 362,303 362,302 361,301 360,299 359,297 358,296 357,294 356,293 354,290 353,289 352,287 351,286 350,284 349,282 348,280 347,278 347,277 346,275 346,274 345,271 344,269 339,263 338,261 337,259 336,256 336,255 335,253 335,252 334,249 334,248 333,243 333,242 332,238 332,237 332,231 332,230 333,228 333,227 333,224 333,223 332,220 332,219 332,214 332,213 333,211 333,210 333,197 333,196 333,191 334,189 335,187 336,185 337,182 337,181 338,177 338,176 339,174 340,172 341,170 344,166 345,165 346,163 347,162 349,159 350,158 354,153 355,152 360,146 361,145 365,141 367,140 369,139 370,139 373,138 374,138 376,137 378,136 379,136 381,135 390,134 391,134 395,133 396,133 401,132 402,132 406,132 407,132 411,133 412,133 414,134 415,134 419,135 420,135 423,136 425,137 426,137 427,138 429,139 431,140 432,141 438,147 439,149 440,150 441,152 444,155 445,156 456,166 457,167 460,170 461,172 462,174 462,175 463,179 463,181 463,183 462,188 462,189 461,193 461,194 460,199 460,200 460,209 460,210 461,216 461,217 462,221 462,222 462,245 462,246 461,249 461,250 460,252 460,253 459,255 459,256 458,258 454,263 453,265 453,266 453,270 453,271 452,276 452,277 451,279 451,280 450,287 450,288 450,302 451,305 455,307 456,308 460,312 461,314 462,318 462,319 462,334 463,336 465,339 466,340 469,343 471,344 474,345 481,350 487,345 488,343 489,342 489,341 490,340 490,339 491,338 493,335 497,339 498,341 498,342 499,345 502,347 505,347 506,347 508,346 509,346 512,346 514,349 514,350 513,352 512,354 511,358 514,360 516,361 518,362 521,363 524,363 526,362 527,362 528,361 529,361 530,360 531,360 532,359 533,359 537,359 538,364 537,366 537,367 536,369 536,373 539,375 546,377 545,381 544,384 543,386 543,387 542,389 542,390 541,393 541,394 541,397 544,399 550,401 550,404 549,406 548,408 546,411 543,414 541,415 539,416 538,416 536,417 535,417 533,418 532,418 530,419 529,419 523,420 522,420 518,421 517,421 482,421 481,421 475,420 474,420 471,420 470,420 466,421 464,421 462,421 454,421 453,421 393,422 392,422 344,422 343,422 329,422 327,422 325,422 282,421 278,418 278,410 278,409 279,406 280,403 281,401 282,399 282,398 283,397 283,396 284,395 284,394 285,393 286,391 287,389 288,388 290,385 291,383 292,381 293,379" stroke="black" stroke-width="3" style="fill-opacity:0;" /><polyline points="234,243 233,244 236,242 237,241 239,240 240,239 242,238 243,237 245,236 247,235 248,234 249,234 251,233 253,232 254,232 256,231 257,231 259,230 260,230 279,229 280,229 287,229 288,229 290,230 292,231 293,231 294,232 295,232 296,233 297,233 298,234 299,234 300,235 301,235 302,236 303,236 304,237 306,238 309,240 310,241 312,242 313,243 317,246 318,247 321,249 323,251 325,254 328,255 331,253 331,250 331,249 331,237 331,236 332,233 332,232 333,230 333,229 334,227 337,224 338,223 341,220 342,218 343,217 343,216 344,215 345,213 348,210 353,210 359,214 367,208 371,208 374,211 374,221 374,222 374,233 374,234 375,240 376,242 376,243 377,244 377,245 378,246 378,247 379,248 379,249 380,250 381,252 385,256 386,257 389,260 390,261 391,263 392,264 397,269 399,270 401,271 402,271 404,272 406,272 409,270 411,267 412,265 413,262 413,261 414,247 414,246 415,244 415,243 416,241 417,239 419,237 422,235 426,235 429,236 430,239 431,241 432,243 432,244 433,249 433,250 433,254 433,255 432,260 432,261 431,264 431,265 430,269 430,270 430,275 430,276 429,279 428,281 426,282 424,281 425,285 427,289 427,290 428,292 428,293 429,295 429,296 429,306 429,307 428,309 427,311 427,312 426,314 404,308 405,305 405,300 404,298 403,296 403,291 405,286 402,284 414,283 414,286 417,288 418,288 420,287 417,280 420,279 401,309 400,309 398,308 396,307 393,305 391,304 390,303 388,302 387,301 385,300 384,299 379,294 379,289 379,288 380,286 383,284 368,280 365,282 362,280 362,274 365,272 368,274 349,295 350,296 346,293 344,292 343,292 340,294 339,303 339,304 338,306 337,308 337,309 336,310 336,311 335,312 335,313 334,314 334,315 333,316 333,317 332,318 331,320 330,322 329,324 329,325 328,330 328,331 327,334 327,335 326,337 325,339 323,342 322,344 321,346 320,349 319,351 318,353 317,355 316,357 315,359 315,360 314,363 314,364 313,368 313,369 312,374 312,375 312,384 315,387 317,388 318,389 319,389 320,390 321,390 322,391 323,391 325,392 327,393 328,393 330,394 331,394 333,395 334,395 336,396 338,397 339,397 340,398 342,399 344,400 347,402 349,403 350,404 354,408 355,409 356,411 357,412 358,414 358,417 356,419 354,420 353,420 396,414 396,413 397,417 401,421 395,404 395,403 394,395 394,394 393,387 393,386 392,379 392,378 391,373 391,372 390,368 390,367 389,364 389,363 388,360 388,359 387,356 387,355 386,353 386,352 385,349 385,348 384,344 384,343 383,339 383,338 382,335 381,332 380,330 379,328 378,327 377,325 376,324 371,318 370,317 366,312 365,311 426,351 426,352 427,356 427,357 428,361 428,362 429,365 429,366 430,370 430,371 431,373 431,374 432,377 432,378 433,381 433,382 434,385 434,386 435,388 436,391 437,393 437,394 438,396 438,397 439,399 440,402 441,404 442,406 442,407 443,408 443,409 444,410 444,411 445,412 445,413 446,416 442,419 438,420 437,420 431,421 430,421 525,407 530,407 533,406 533,410 529,411 537,412 540,414 541,415 543,416 545,417 549,417 550,417 553,417 556,418 558,419 559,419 571,419 572,419 574,418 575,418 581,418 584,419 592,419 593,419 596,419 597,419 602,420 603,420 614,421 615,421 582,388 578,391 570,391 567,390 566,387 565,386 565,385 564,384 564,383 563,382 563,381 562,380 562,379 561,378 560,376 558,373 554,371 551,373 551,379 552,381 553,384 551,388 550,391 547,393 545,394 542,395 540,395 536,396 536,400 536,403 583,362 587,358 589,357 591,356 592,356 598,355 599,355 602,354 604,353 605,353 606,352 607,352 609,351 612,350 613,350 616,349 617,349 620,348 622,347 623,347 625,346 627,345 629,344 631,343 633,342 635,341 637,340 638,316 635,315 633,311 632,309 631,308 631,307 630,305 629,303 628,300 627,298 624,295 623,294 619,290 618,288 617,285 616,283 615,280 614,278 614,277 613,275 613,274 612,272 612,271 611,269 611,268 611,261 611,260 611,257 611,256 610,253 610,252 610,247 611,244 612,226 613,224 614,222 615,220 616,217 616,216 617,213 618,211 619,209 622,205 623,204 634,193 635,192 637,191 302,421 301,421 241,421 240,421 225,420 224,420 221,420 220,420 194,420 193,420 178,419 177,419 171,418 170,418 154,417 153,417 148,416 148,413 156,404 157,403 158,401 159,399 160,395 164,392 166,391 167,391 169,390 171,389 175,385 176,383 177,375 181,372 183,371 196,370 197,370 200,369 201,369 204,368 205,368 210,367 211,367 214,366 215,366 222,365 223,365 225,364 226,364 228,363 229,363 232,362 235,360 228,350 227,349 226,347 225,346 224,344 223,342 222,340 221,337 220,335 220,334 219,332 218,330 218,329 217,328 217,327 216,325 215,323 214,321 213,319 211,316 210,314 209,311 209,310 208,304 208,303 207,301 207,300 206,298 206,297 206,286 206,285 207,283 207,282 208,278 208,277 209,274 210,272 210,271 211,270 211,269 212,268 213,266 220,258 221,257 222,255 223,254" stroke="black" stroke-width="3" style="fill-opacity:0;" /><polyline points="213,247 215,246 216,245 217,245 218,244 219,244 220,243 222,242 225,240 227,239 228,238 229,238 230,237 231,237 233,236 235,235 236,235 241,235 242,235 247,235 248,235 253,234 254,234 267,234 268,234 270,235 273,236 275,237 277,238 278,239 280,240 281,241 285,245 286,247 287,248 288,250 292,255 293,256 295,259 296,260 298,263 299,264 300,266 301,268 302,269 302,270 303,272 304,275 305,278 306,280 306,281 307,283 307,284 308,286 308,287 309,293 309,294 309,304 309,305 308,309 308,310 307,313 307,314 306,316 306,317 305,319 305,320 304,323 304,324 303,327 303,328 302,331 302,332 301,336 301,337 300,339 300,340 299,342 298,345 297,347 297,348 296,350 295,352 294,354 293,356 292,358 291,366 291,367 290,374 290,376 290,378 291,380 295,383 297,384 298,385 299,385 300,386 301,386 302,387 303,387 304,388 305,388 306,389 307,389 308,390 309,390 311,391 313,392 314,392 316,393 318,394 319,394 320,395 321,395 322,396 323,396 324,397 325,397 326,398 327,398 328,399 330,400 332,401 333,402 337,406 338,407 339,409 340,410 341,412 342,414 342,415 342,418 340,420 338,421 337,421 316,421 315,421 296,421 295,421 289,421 288,421 257,421 256,421 224,421 223,421 216,421 215,421 209,421 208,421 187,421 186,421 180,420 179,420 158,419 157,419 140,419 139,419 131,419 129,417 129,412 129,411 130,409 131,407 131,406 132,405 132,404 133,403 134,401 135,399 136,398 137,396 138,395 141,391 142,390 147,385 149,384 150,383 151,383 152,382 155,380 157,378 158,376 159,375 161,372 162,371 165,368 166,367 168,366 171,364 175,360 176,359 177,357 178,356 180,353 181,352 183,349 184,348 187,344 188,343 189,341 190,340 191,338 192,336 192,330 192,329 191,326 191,325 190,323 190,322 189,320 189,319 188,317 188,316 187,314 187,313 186,309 186,308 186,290 187,288 187,287 188,285 189,281 189,280 190,276 191,274 192,272 196,267 197,266 199,263 200,262 206,255 207,254 208,252 209,251 328,250 328,249 329,245 329,244 330,240 331,238 334,235 335,234 338,231 339,229 340,228 340,227 341,226 341,225 342,224 343,221 346,220 350,220 352,221 357,224 360,222 362,220 365,217 369,217 372,218 373,221 373,234 373,236 373,238 374,247 374,248 375,250 376,252 377,254 378,256 379,258 380,260 382,264 391,272 392,274 393,275 394,278 397,279 399,280 400,280 406,280 409,279 410,276 411,274 412,271 412,270 413,254 413,253 414,251 415,249 416,247 420,243 422,242 427,242 431,246 432,249 432,250 433,253 433,254 433,266 433,267 432,272 432,273 431,290 431,291 430,293 430,294 430,298 430,299 431,304 431,305 431,315 431,316 430,318 429,321 428,323 428,324 428,342 428,343 429,357 429,358 430,361 430,362 431,365 431,366 432,369 432,370 433,373 433,374 434,377 434,378 435,380 435,381 436,384 436,385 437,387 437,388 438,390 438,391 439,393 439,394 440,396 440,397 441,399 441,400 442,402 443,404 443,405 444,406 444,407 445,409 446,411 447,414 447,417 443,420 438,421 437,421 428,422 427,422 404,422 403,422 401,421 398,420 396,416 395,413 395,412 394,403 394,402 393,395 393,394 392,389 392,388 391,382 391,381 390,377 390,376 389,373 389,372 388,369 388,368 387,366 387,365 386,362 386,361 385,358 385,357 384,352 384,351 383,348 382,345 381,343 380,341 379,339 378,338 374,333 373,332 365,323 364,322 358,316 357,315 349,308 348,307 346,306 345,305 343,304 340,302 335,299 333,295 332,293 331,291 331,290 330,287 330,286 329,263 329,262 328,257 328,256 387,301 390,299 395,303 397,306 400,312 397,314 393,312 391,311 390,310 387,307 522,407 526,404 527,403 530,401 531,398 533,395 536,393 538,392 541,390 542,387 545,383 546,378 546,377 547,375 548,372 551,371 554,370 557,371 560,372 563,377 564,378 567,381 569,382 570,382 573,380 574,370 574,369 575,366 576,364 582,358 584,357 585,357 587,356 588,356 590,355 591,355 597,354 598,354 602,353 604,352 605,352 606,351 607,351 609,350 611,349 612,349 615,348 616,348 619,347 621,346 622,346 623,345 624,345 625,344 626,344 627,343 628,343 629,342 630,342 631,341 633,340 635,339 638,321 635,318 634,317 632,314 630,311 629,309 628,307 627,304 626,302 625,300 624,297 617,291 616,289 615,286 614,284 613,281 612,279 612,278 611,276 610,274 610,273 609,272 609,271 608,269 607,265 607,264 607,255 607,254 607,247 607,246 608,244 608,243 608,231 608,229 609,226 610,224 611,222 612,220 612,219 613,215 613,214 614,212 615,210 617,207 618,206 622,201 623,200 627,196 628,195 636,188 638,187 616,422 615,422 599,421 598,421 582,420 581,420 575,420 574,420 567,421 566,421 557,420 556,420 543,419 542,419 540,418 539,418 536,418 535,418 531,418 529,417 527,416 525,415 522,412" stroke="black" stroke-width="3" style="fill-opacity:0;" /><polyline points="4,57 5,57 9,58 12,60 14,63 14,80 14,81 13,84 12,86 11,88 10,90 9,91 7,94 5,97 1,168 5,172 6,173 7,175 8,177 9,178 9,179 10,181 11,185 11,186 12,206 12,207 13,223 13,224 14,228 14,229 15,231 16,234 17,236 17,237 18,240 18,241 19,243 19,244 20,247 20,248 21,252 21,253 21,284 21,285 20,298 20,299 19,304 19,305 18,307 17,309 16,311 15,313 14,315 13,316 13,317 12,318 12,319 11,320 10,322 9,324 8,326 7,328 7,329 6,330 6,331 5,332 2,336 307,278 307,277 308,282 309,284 310,286 322,299 323,300 325,303 326,304 327,306 328,307 329,309 330,310 331,312 332,314 333,315 333,316 334,317 335,319 336,321 337,323 338,324 339,326 340,328 341,330 342,332 342,333 343,336 343,337 344,342 344,343 345,354 345,355 346,358 346,359 347,363 347,364 348,370 348,371 386,364 386,363 387,370 387,371 388,377 388,378 389,383 389,384 390,389 390,390 391,394 391,395 392,398 392,399 393,402 393,403 394,405 394,406 395,409 395,410 396,412 396,413 396,417 394,419 392,420 391,420 380,421 379,421 371,422 370,422 355,422 353,421 350,418 349,415 349,414 386,348 386,347 387,340 387,339 388,335 388,334 389,331 389,330 390,328 391,326 392,324 393,323 393,322 394,321 394,320 395,318 396,316 396,315 397,313 398,310 399,308 400,306 400,305 401,303 402,301 402,300 403,291 403,290 404,288 404,287 405,285 405,284 406,282 406,281 407,278 407,277 408,273 408,272 407,262 398,261 396,262 395,263 392,266 391,268 390,269 390,270 389,272 388,275 388,276 387,280 387,281 386,283 385,285 383,287 380,289 376,289 375,289 370,288 367,286 365,291 366,293 367,296 367,302 367,303 366,306 366,307 365,311 362,313 359,313 357,312 355,311 353,310 352,309 345,302 344,299 345,296 349,292 351,291 359,290 362,289 366,280 365,278 359,271 358,263 358,262 358,257 358,256 358,235 357,233 354,230 351,230 348,231 346,236 343,237 340,235 339,232 338,230 335,227 330,227 327,230 325,234 322,235 320,236 316,239 315,241 315,242 314,245 314,246 313,253 313,254 312,256 310,259 309,261 308,263 308,264 307,266 307,267 335,281 337,278 340,276 341,276 344,278 344,284 339,287 335,285 472,362 472,363 471,364 471,365 470,366 470,367 469,368 468,370 467,372 466,373 465,375 464,377 463,378 463,379 462,381 461,383 461,384 460,386 459,388 459,389 458,390 458,391 457,392 457,393 456,394 456,395 455,396 455,397 454,398 454,399 453,400 453,401 452,402 452,403 451,405 450,407 450,408 450,416 454,419 456,420 457,420 471,421 472,421 486,422 487,422 473,361 474,359 480,353 481,352 484,350 486,349 487,348 488,348 489,347 490,347 491,346 492,346 493,345 494,345 495,344 496,344 498,343 500,342 503,341 505,340 506,340 510,339 511,339 514,338 515,338 517,337 518,337 520,336 523,335 525,334 526,334 528,333 530,332 531,332 532,331 533,331 534,330 536,329 538,328 539,327 541,326 544,324 546,323 547,322 549,321 550,320 554,316 555,313 555,311 554,309 553,307 547,300 546,299 537,289 536,288 535,286 533,283 532,281 531,279 530,278 530,277 529,275 528,273 528,272 527,269 527,268 526,266 525,264 525,263 524,262 523,260 518,254 517,252 516,250 516,247 516,246 516,242 516,241 515,239 515,238 514,235 514,234 513,231 513,230 512,226 512,225 511,222 511,221 510,219 509,216 509,209 509,208 510,203 510,202 511,197 511,196 512,194 512,193 513,191 513,190 514,187 514,186 515,184 515,183 516,181 517,179 518,177 519,175 520,174 521,172 522,170 523,169 523,168 524,167 525,165 528,162 529,161 531,160 532,159 536,156 537,155 539,154 541,153 543,152 545,151 548,150 550,149 553,148 555,147 556,147 558,146 559,146 563,145 564,145 574,144 575,144 594,144 595,144 608,144 610,144 612,144 614,145 616,146 617,146 618,147 619,147 620,148 621,148 622,149 623,149 624,150 626,151 628,152 629,153 633,157 636,161 600,422 599,422" stroke="black" stroke-width="3" style="fill-opacity:0;" /></svg>