<?xml version="1.0" encoding="utf-8" ?>
<svg baseProfile="tiny" height="100%" version="1.2" width="100%" xmlns="http://www.w3.org/2000/svg" xmlns:ev="http://www.w3.org/2001/xml-events" xmlns:xlink="http://www.w3.org/1999/xlink"><defs /><polyline points="282,178 287,188 289,202 288,220 280,228 265,235 255,237 237,240 218,257 212,266 206,278 201,290 196,300 189,312 182,323 176,332 166,338 161,347 171,349 184,360 179,375 190,379 204,367 212,357 219,348 225,339 233,330 238,345 237,375 234,385 230,395 227,406 229,419 169,385 157,378 148,385 137,383 127,381 117,378 106,374 91,363 77,366 71,350 81,349 72,330 58,316 43,315 30,315 58,350 48,360 45,373 47,387 60,370 22,363 126,340 144,344 153,339 292,298 297,289 303,302 316,299 312,285 352,293 369,294 380,292 375,283 359,275 363,241 353,240 344,228 343,207 342,185 354,184 366,170 373,159 376,149 376,133 374,123 368,112 362,104 342,88 332,85 315,85 303,87 293,92 284,99 274,110 267,125 267,135 269,152 276,166 379,236 390,240 400,248 413,258 429,268 440,273 454,275 454,265 452,251 450,241 448,231 439,218 429,214 429,202 437,195 443,186 432,182 432,167 424,161 420,146 442,131 460,130 463,151 456,164 444,167 448,153 455,177 453,194 460,202 461,212 449,211 472,205 472,195 475,184 480,171 470,168 480,159 488,150 472,218 473,238 475,248 478,259 481,269 485,280 491,294 494,310 494,321 489,334 468,335 457,332 446,328 429,320 420,315 410,309 397,301 391,315 377,306 356,316 346,318 331,323 326,333 313,329 307,342 305,352 306,370 304,394 302,407 302,419 316,416 327,404 333,418 413,205 400,196" stroke="black" stroke-width="3" style="fill-opacity:0;" /></svg>