<?xml version="1.0" encoding="utf-8" ?>
<svg baseProfile="full" height="640" version="1.1" width="800" xmlns="http://www.w3.org/2000/svg" xmlns:ev="http://www.w3.org/2001/xml-events" xmlns:xlink="http://www.w3.org/1999/xlink"><defs /><polyline points="199,284 199,291 200,294 202,299 204,303 205,306 207,309 208,312 210,315 212,318 214,321 216,324 219,328 222,332 225,336 227,339 229,342 231,345 233,348 236,352 238,355 240,358 242,361 244,364 246,367 247,370 249,373 250,376 250,384 249,389 248,393 247,397 246,401 245,404 244,408 243,412 243,418 246,421 247,326 250,325 251,322 252,319 253,316 254,312 256,309 261,309 264,310 269,312 273,314 278,316 285,320 291,323 294,324 297,325 301,327 304,328 308,326 308,323 307,319 306,316 305,313 304,306 303,301 302,297 301,291 300,284 299,268 299,262 300,259 300,254 295,251 290,252 285,254 279,257 274,260 270,262 267,264 263,266 260,268 257,270 253,272 249,276 242,283 235,288 232,287 228,285 225,283 222,281 215,273 216,269 220,267 225,264 228,262 233,257 240,250 245,250 250,252 253,251 258,245 264,240 268,239 273,238 278,237 281,236 285,235 288,234 291,233 295,232 298,231 301,230 305,228 308,227 311,226 315,225 319,224 323,223 333,222 343,221 369,221 374,222 379,223 382,224 387,225 391,225 396,223 404,223 408,227 410,231 413,232 423,233 426,234 429,235 433,237 437,239 442,240 445,241 448,242 451,243 454,244 457,245 460,246 463,247 466,248 469,249 472,250 475,251 478,253 481,254 484,255 491,256 494,257 497,260 498,264 497,273 496,277 495,280 493,284 492,287 490,290 488,294 485,299 482,304 480,308 477,313 475,317 473,320 471,323 468,327 464,332 458,339 451,347 443,356 441,359 439,362 435,366 427,373 416,385 415,388 414,393 413,396 412,399 410,404 409,407 408,411 407,417 406,420 403,421 383,323 386,322 389,321 394,319 398,317 403,314 407,312 410,311 413,310 417,309 420,308 425,306 428,304 431,302 434,300 439,296 448,287 448,284 446,281 437,272 431,267 427,264 423,261 420,259 417,257 413,255 410,253 407,252 403,250 400,249 396,248 393,247 389,246 386,247 382,249 379,251 376,253 371,257 370,268 370,273 371,278 371,283 370,286 367,291 360,299 359,302 358,305 357,311 357,324 358,327 361,328 365,328 369,326 372,325 377,324 326,246 323,248 320,246 323,242 239,305 235,307 230,310 227,310 217,301 213,296 206,289 242,312 243,317 244,324 626,394 627,390 634,390 638,391 632,399 629,398 635,401 632,406 632,409 636,412 637,368 634,365 636,362 638,64 638,61" stroke="black" stroke-width="3" style="fill-opacity:0;" /><polyline points="3,172 8,170 13,168 17,166 20,164 26,161 31,159 35,158 49,158 52,159 55,160 62,160 67,159 77,159 81,160 84,161 87,162 91,164 95,166 98,167 103,169 113,176 116,177 124,183 127,188 128,191 141,205 143,208 144,211 145,215 146,220 147,224 148,228 149,251 150,259 155,262 157,267 158,270 158,276 157,279 155,284 153,288 152,291 150,296 145,300 145,303 147,306 150,308 153,309 161,308 168,308 180,308 184,306 187,305 191,304 194,304 197,305 201,307 204,309 207,310 211,311 215,312 219,313 232,313 239,313 242,314 247,317 249,320 250,323 253,326 256,328 262,334 264,337 267,343 268,346 269,349 271,354 273,359 275,362 276,365 278,368 279,371 280,374 281,377 286,383 288,386 290,390 292,395 293,398 294,401 295,404 297,409 299,412 302,414 308,414 297,421 340,414 345,415 343,420 351,418 231,421 125,420 120,420 112,421 120,320 117,318 117,314 126,315 128,312 130,308 131,304 132,297 120,293 121,290 121,286 120,275 129,271 130,274 131,277 132,281 128,266 127,263 126,260 123,259 120,261 119,297 118,303 51,331 51,334 48,337 47,341 44,343 48,329 43,328 38,328 34,329 29,332 28,336 25,341 28,343 19,332 16,334 16,328 8,328 5,332 8,334 6,373 6,377 472,154 471,151 470,148 469,145 468,142 466,137 465,134 465,123 466,119 467,116 468,113 469,110 470,107 471,93 472,90 473,87 474,81 475,77 476,71 477,68 481,61 485,59 488,58 558,57 580,57 584,57 604,57 543,208 539,207 532,206 529,205 518,204 515,203 511,202 506,201 503,199 496,193 495,190 492,184 487,178 484,173 482,170 480,167 478,164 476,160 474,157 548,212 550,216 552,219 553,222 555,225 556,228 556,232 552,238 549,242 544,246 543,249 543,258 544,261 546,264 547,267 549,271 550,274 551,278 552,281 554,285 556,289 558,293 560,297 562,302 563,305 565,309 566,312 568,315 570,319 572,322 574,326 575,329 575,333 571,337 567,340 561,346 559,349 558,352 557,356 557,363 558,366 560,370 563,373 566,374 569,375 574,380 570,384 569,387 569,394 571,398 572,401 574,404 575,407 576,410 577,413 578,416 579,419 582,420 585,421" stroke="black" stroke-width="3" style="fill-opacity:0;" /></svg>