<?xml version="1.0" encoding="utf-8" ?>
<svg baseProfile="full" height="640" version="1.1" width="800" xmlns="http://www.w3.org/2000/svg" xmlns:ev="http://www.w3.org/2001/xml-events" xmlns:xlink="http://www.w3.org/1999/xlink"><defs /><polyline points="57.0,61.0 55.0,63.0 53.0,66.0 52.0,73.0 52.0,74.0 52.0,87.0 52.0,88.0 52.0,105.0 52.0,106.0 51.0,114.0 51.0,115.0 50.0,123.0 50.0,124.0 49.0,135.0 49.0,136.0 49.0,140.0 49.0,141.0 49.0,155.0 49.0,156.0 49.0,178.0 51.0,181.0 56.0,185.0 56.0,187.0 53.0,189.0 50.0,190.0 49.0,190.0 46.0,191.0 43.0,193.0 43.0,200.0 43.0,202.0 43.0,204.0 54.0,209.0 54.0,210.0 55.0,200.0 59.0,197.0 64.0,196.0 65.0,196.0 64.0,189.0 61.0,187.0 61.0,185.0 64.0,183.0 67.0,181.0 69.0,177.0 70.0,166.0 70.0,165.0 71.0,142.0 71.0,141.0 72.0,115.0 72.0,114.0 73.0,87.0 73.0,86.0 72.0,59.0 68.0,57.0 64.0,57.0 62.0,58.0 60.0,59.0 75.0,189.0 76.0,189.0 75.0,195.0 74.0,195.0 83.0,194.0 84.0,194.0 91.0,191.0 92.0,191.0 32.0,196.0 31.0,193.0 26.0,198.0 25.0,198.0 16.0,192.0 15.0,192.0 12.0,199.0 11.0,199.0 42.0,226.0 42.0,227.0 53.0,237.0 53.0,238.0 41.0,251.0 41.0,252.0 52.0,262.0 52.0,263.0 51.0,283.0 51.0,284.0 50.0,286.0 46.0,289.0 45.0,289.0 41.0,286.0 130.0,315.0 130.0,316.0 131.0,312.0 135.0,309.0 136.0,309.0 138.0,310.0 141.0,311.0 142.0,314.0 143.0,316.0 143.0,317.0 129.0,327.0 129.0,328.0 128.0,340.0 128.0,341.0 127.0,346.0 126.0,348.0 126.0,349.0 125.0,350.0 124.0,352.0 121.0,356.0 120.0,357.0 115.0,362.0 114.0,363.0 111.0,366.0 110.0,367.0 109.0,369.0 108.0,370.0 98.0,381.0 97.0,382.0 86.0,394.0 85.0,395.0 83.0,398.0 82.0,399.0 81.0,401.0 80.0,402.0 70.0,413.0 69.0,415.0 70.0,418.0 72.0,420.0 73.0,420.0 132.0,420.0 134.0,419.0 136.0,418.0 141.0,414.0 143.0,413.0 146.0,413.0 147.0,413.0 149.0,414.0 150.0,414.0 152.0,415.0 154.0,416.0 158.0,419.0 160.0,420.0 167.0,421.0 168.0,421.0 160.0,382.0 164.0,380.0 164.0,377.0 163.0,375.0 163.0,374.0 162.0,371.0 162.0,370.0 162.0,364.0 163.0,362.0 165.0,359.0 167.0,357.0 169.0,356.0 171.0,355.0 172.0,355.0 174.0,354.0 177.0,353.0 179.0,352.0 182.0,351.0 184.0,350.0 185.0,350.0 188.0,349.0 189.0,349.0 194.0,349.0 196.0,352.0 195.0,355.0 192.0,358.0 191.0,359.0 186.0,365.0 183.0,367.0 183.0,370.0 186.0,372.0 188.0,373.0 190.0,374.0 191.0,374.0 193.0,375.0 195.0,376.0 196.0,376.0 200.0,377.0 202.0,378.0 203.0,378.0 204.0,379.0 205.0,379.0 206.0,380.0 207.0,380.0 208.0,381.0 209.0,381.0 210.0,382.0 212.0,383.0 214.0,384.0 217.0,386.0 219.0,387.0 221.0,388.0 222.0,389.0 224.0,390.0 226.0,391.0 229.0,393.0 231.0,394.0 235.0,396.0 238.0,395.0 239.0,392.0 240.0,390.0 241.0,388.0 241.0,387.0 242.0,386.0 243.0,384.0 247.0,380.0 249.0,379.0 252.0,380.0 253.0,383.0 253.0,384.0 252.0,386.0 251.0,388.0 250.0,390.0 248.0,393.0 247.0,395.0 246.0,396.0 245.0,398.0 244.0,400.0 243.0,405.0 243.0,406.0 243.0,409.0 243.0,411.0 239.0,415.0 238.0,416.0 236.0,417.0 234.0,418.0 232.0,419.0 230.0,420.0 226.0,421.0 225.0,421.0 220.0,421.0 218.0,421.0 216.0,421.0 260.0,363.0 259.0,360.0 259.0,359.0 264.0,362.0 267.0,358.0 268.0,356.0 269.0,355.0 273.0,351.0 274.0,350.0 276.0,349.0 277.0,348.0 279.0,347.0 281.0,346.0 283.0,345.0 284.0,345.0 286.0,344.0 287.0,344.0 293.0,343.0 294.0,343.0 300.0,342.0 301.0,342.0 307.0,341.0 308.0,341.0 303.0,330.0 305.0,329.0 307.0,328.0 315.0,328.0 316.0,328.0 319.0,329.0 320.0,329.0 325.0,330.0 326.0,330.0 335.0,331.0 336.0,331.0 339.0,332.0 340.0,332.0 350.0,333.0 351.0,333.0 354.0,334.0 355.0,334.0 358.0,335.0 359.0,335.0 361.0,336.0 362.0,336.0 364.0,337.0 366.0,338.0 367.0,338.0 368.0,339.0 369.0,339.0 371.0,340.0 374.0,341.0 376.0,342.0 378.0,343.0 380.0,344.0 381.0,345.0 378.0,350.0 377.0,350.0 375.0,349.0 380.0,351.0 384.0,350.0 395.0,339.0 395.0,338.0 395.0,331.0 393.0,330.0 392.0,330.0 390.0,329.0 383.0,328.0 382.0,328.0 380.0,327.0 377.0,325.0 375.0,323.0 372.0,320.0 370.0,319.0 369.0,318.0 368.0,318.0 367.0,317.0 366.0,317.0 364.0,316.0 362.0,315.0 361.0,315.0 359.0,314.0 357.0,313.0 356.0,313.0 354.0,312.0 341.0,311.0 340.0,311.0 331.0,310.0 330.0,310.0 326.0,309.0 325.0,309.0 314.0,308.0 311.0,306.0 309.0,304.0 307.0,301.0 306.0,299.0 305.0,297.0 305.0,296.0 306.0,293.0 311.0,290.0 313.0,289.0 315.0,288.0 317.0,287.0 318.0,287.0 335.0,286.0 336.0,286.0 340.0,285.0 341.0,285.0 343.0,284.0 344.0,284.0 350.0,284.0 351.0,284.0 362.0,284.0 365.0,282.0 365.0,279.0 365.0,278.0 365.0,275.0 368.0,273.0 370.0,272.0 373.0,270.0 374.0,260.0 374.0,259.0 374.0,256.0 374.0,255.0 374.0,248.0 374.0,247.0 375.0,240.0 375.0,239.0 376.0,229.0 376.0,228.0 377.0,224.0 377.0,223.0 377.0,210.0 377.0,209.0 377.0,188.0 377.0,187.0 378.0,179.0 378.0,178.0 379.0,176.0 379.0,175.0 379.0,172.0 376.0,170.0 374.0,169.0 373.0,169.0 368.0,168.0 367.0,168.0 359.0,155.0 358.0,155.0 353.0,156.0 352.0,156.0 347.0,157.0 346.0,157.0 336.0,158.0 335.0,158.0 328.0,159.0 327.0,159.0 320.0,160.0 319.0,160.0 315.0,161.0 314.0,161.0 311.0,167.0 310.0,167.0 300.0,168.0 299.0,168.0 289.0,162.0 288.0,162.0 286.0,163.0 285.0,163.0 282.0,164.0 283.0,168.0 284.0,168.0 279.0,167.0 333.0,167.0 334.0,167.0 380.0,154.0 381.0,154.0 388.0,153.0 389.0,153.0 391.0,152.0 393.0,151.0 398.0,146.0 399.0,144.0 400.0,143.0 401.0,141.0 405.0,137.0 406.0,136.0 408.0,135.0 409.0,134.0 413.0,131.0 414.0,130.0 416.0,129.0 419.0,127.0 421.0,126.0 422.0,125.0 425.0,123.0 426.0,122.0 432.0,117.0 433.0,116.0 435.0,115.0 436.0,114.0 438.0,113.0 440.0,112.0 441.0,111.0 443.0,110.0 445.0,109.0 446.0,108.0 448.0,107.0 450.0,106.0 452.0,105.0 463.0,105.0 464.0,105.0 473.0,105.0 474.0,105.0 488.0,104.0 489.0,104.0 498.0,104.0 500.0,105.0 501.0,105.0 502.0,106.0 503.0,106.0 504.0,107.0 505.0,107.0 507.0,108.0 512.0,109.0 513.0,109.0 519.0,110.0 520.0,110.0 522.0,111.0 523.0,111.0 525.0,112.0 526.0,112.0 528.0,113.0 530.0,114.0 532.0,115.0 534.0,116.0 535.0,117.0 544.0,125.0 545.0,126.0 548.0,129.0 549.0,131.0 550.0,133.0 551.0,135.0 551.0,136.0 552.0,139.0 553.0,142.0 556.0,143.0 557.0,143.0 560.0,141.0 562.0,138.0 563.0,136.0 564.0,133.0 564.0,132.0 586.0,132.0 586.0,133.0 586.0,136.0 590.0,139.0 592.0,140.0 597.0,140.0 599.0,139.0 600.0,139.0 601.0,138.0 602.0,138.0 603.0,137.0 604.0,137.0 605.0,136.0 606.0,136.0 608.0,135.0 610.0,134.0 611.0,134.0 615.0,133.0 616.0,133.0 623.0,132.0 624.0,132.0 633.0,131.0 634.0,131.0 632.0,148.0 631.0,148.0 600.0,149.0 598.0,150.0 593.0,154.0 591.0,155.0 590.0,156.0 586.0,160.0 587.0,164.0 587.0,178.0 587.0,179.0 587.0,185.0 587.0,186.0 588.0,200.0 588.0,201.0 589.0,210.0 589.0,211.0 571.0,233.0 568.0,231.0 565.0,233.0 564.0,237.0 564.0,238.0 563.0,242.0 563.0,243.0 562.0,246.0 562.0,247.0 561.0,251.0 560.0,253.0 559.0,255.0 558.0,257.0 557.0,258.0 556.0,260.0 555.0,261.0 554.0,263.0 553.0,264.0 552.0,266.0 551.0,267.0 550.0,269.0 548.0,272.0 547.0,274.0 546.0,276.0 546.0,280.0 549.0,282.0 551.0,283.0 552.0,283.0 555.0,284.0 556.0,284.0 559.0,285.0 562.0,286.0 563.0,290.0 562.0,294.0 559.0,295.0 543.0,296.0 542.0,296.0 533.0,297.0 532.0,297.0 520.0,298.0 519.0,298.0 502.0,298.0 499.0,296.0 497.0,295.0 495.0,294.0 493.0,293.0 492.0,293.0 480.0,292.0 479.0,292.0 469.0,292.0 468.0,292.0 446.0,317.0 447.0,318.0 439.0,311.0 438.0,310.0 435.0,308.0 434.0,307.0 431.0,305.0 430.0,304.0 426.0,301.0 425.0,300.0 420.0,296.0 420.0,294.0 423.0,292.0 424.0,292.0 406.0,332.0 403.0,331.0 401.0,331.0 414.0,338.0 415.0,341.0 416.0,346.0 419.0,349.0 421.0,350.0 422.0,351.0 423.0,351.0 424.0,352.0 425.0,352.0 427.0,353.0 429.0,354.0 432.0,355.0 434.0,356.0 435.0,356.0 437.0,357.0 438.0,357.0 440.0,358.0 442.0,359.0 443.0,359.0 445.0,360.0 447.0,361.0 450.0,362.0 452.0,363.0 455.0,364.0 457.0,365.0 459.0,366.0 460.0,366.0 461.0,367.0 462.0,367.0 464.0,368.0 466.0,369.0 469.0,370.0 471.0,371.0 472.0,371.0 475.0,370.0 473.0,366.0 471.0,365.0 470.0,364.0 468.0,363.0 465.0,361.0 463.0,360.0 461.0,359.0 460.0,358.0 458.0,357.0 456.0,356.0 453.0,354.0 451.0,353.0 448.0,351.0 446.0,350.0 444.0,349.0 443.0,348.0 440.0,346.0 440.0,344.0 443.0,342.0 448.0,341.0 449.0,341.0 451.0,340.0 454.0,339.0 456.0,338.0 459.0,335.0 459.0,331.0 458.0,329.0 462.0,377.0 463.0,380.0 466.0,379.0 466.0,377.0 416.0,382.0 415.0,379.0 411.0,376.0 409.0,375.0 407.0,374.0 406.0,374.0 403.0,383.0 402.0,383.0 406.0,384.0 407.0,384.0 413.0,384.0 398.0,382.0 397.0,382.0 394.0,381.0 393.0,381.0 390.0,380.0 389.0,380.0 385.0,379.0 384.0,379.0 378.0,378.0 377.0,378.0 372.0,377.0 371.0,377.0 367.0,376.0 366.0,376.0 363.0,375.0 362.0,375.0 359.0,374.0 358.0,374.0 360.0,367.0 361.0,367.0 356.0,366.0 355.0,366.0 350.0,365.0 349.0,365.0 345.0,364.0 344.0,364.0 340.0,363.0 339.0,363.0 332.0,362.0 331.0,362.0 328.0,368.0 327.0,368.0 325.0,367.0 324.0,367.0 322.0,366.0 317.0,363.0 330.0,369.0 331.0,369.0 333.0,370.0 334.0,370.0 337.0,371.0 338.0,371.0 342.0,372.0 343.0,372.0 349.0,373.0 350.0,373.0 369.0,368.0 370.0,368.0 375.0,369.0 376.0,369.0 380.0,370.0 381.0,370.0 384.0,371.0 385.0,371.0 388.0,372.0 389.0,372.0 394.0,373.0 395.0,373.0 366.0,348.0 365.0,348.0 363.0,347.0 362.0,347.0 359.0,346.0 358.0,346.0 356.0,345.0 355.0,345.0 353.0,344.0 352.0,344.0 348.0,343.0 347.0,343.0 338.0,342.0 337.0,342.0 323.0,341.0 322.0,341.0 299.0,332.0 296.0,330.0 297.0,325.0 294.0,323.0 291.0,322.0 290.0,322.0 284.0,322.0 283.0,322.0 280.0,323.0 278.0,324.0 276.0,325.0 274.0,326.0 271.0,327.0 269.0,327.0 267.0,326.0 265.0,326.0 261.0,329.0 260.0,331.0 260.0,334.0 261.0,336.0 261.0,337.0 262.0,338.0 262.0,339.0 263.0,342.0 259.0,347.0 257.0,350.0 259.0,353.0 270.0,297.0 275.0,298.0 277.0,297.0 281.0,294.0 280.0,291.0 275.0,290.0 273.0,291.0 149.0,345.0 149.0,346.0 148.0,344.0 148.0,343.0 147.0,342.0 146.0,340.0 145.0,338.0 144.0,336.0 144.0,335.0 150.0,348.0 151.0,350.0 152.0,352.0 152.0,353.0 153.0,355.0 153.0,362.0 153.0,363.0 153.0,367.0 153.0,368.0 154.0,376.0 154.0,377.0 155.0,379.0 342.0,413.0 347.0,416.0 348.0,416.0 350.0,417.0 353.0,418.0 356.0,419.0 357.0,419.0 361.0,419.0 364.0,417.0 361.0,415.0 359.0,414.0 358.0,414.0 352.0,413.0 351.0,413.0 575.0,288.0 575.0,286.0 578.0,292.0 584.0,293.0 585.0,293.0 591.0,294.0 592.0,294.0 597.0,295.0 598.0,295.0 604.0,294.0 605.0,294.0 608.0,293.0 609.0,293.0 601.0,284.0 600.0,284.0 596.0,283.0 593.0,282.0 592.0,279.0 591.0,265.0 591.0,264.0 590.0,251.0 590.0,250.0 573.0,248.0 573.0,247.0 572.0,241.0 572.0,240.0 574.0,257.0 574.0,258.0 575.0,269.0 575.0,270.0 624.0,284.0 625.0,284.0 625.0,292.0 624.0,292.0 587.0,110.0 587.0,109.0 588.0,107.0 589.0,104.0 589.0,101.0 588.0,98.0 587.0,96.0 587.0,95.0 586.0,86.0 586.0,85.0 585.0,82.0 585.0,81.0 584.0,78.0 584.0,77.0 583.0,71.0 583.0,70.0 582.0,64.0 582.0,63.0 581.0,61.0 577.0,58.0 569.0,58.0 565.0,61.0 564.0,64.0 564.0,65.0 564.0,70.0 564.0,71.0" stroke="black" stroke-width="3" style="fill-opacity:0;" /></svg>