<?xml version="1.0" encoding="utf-8" ?>
<svg baseProfile="tiny" height="100%" version="1.2" width="100%" xmlns="http://www.w3.org/2000/svg" xmlns:ev="http://www.w3.org/2001/xml-events" xmlns:xlink="http://www.w3.org/1999/xlink"><defs /><polyline points="58,350 30,352 35,370 34,382 21,332 29,301 33,273 35,250 49,239 48,188 47,173 63,168 35,157 43,129 113,205 115,250 135,344 134,385 125,404 272,351 283,353 301,352 314,352 322,359 331,351 323,344 332,338 323,332 318,320 321,301 325,289 314,290 304,284 309,269 317,261 328,258 339,258 345,268 343,282 330,279 321,274 316,246 331,240 341,240 331,229 341,221 352,217 354,229 368,220 374,236 362,244 353,252 359,261 369,264 360,275 360,285 369,280 353,298 364,304 351,314 343,320 347,331 357,331 359,321 367,339 357,344 355,354 345,355 343,341 336,369 331,382 321,384 320,373 323,400 324,412 332,418 338,409 347,418 357,418 367,417 366,406 352,405 357,392 365,384 371,368 372,357 378,348 337,309 337,298 323,212 329,204 321,192 322,177 319,158 317,124 306,119 291,125 282,119 270,119 259,120 251,126 242,120 227,120 207,127 193,121 253,204 307,213 333,123 341,117 352,117 367,122 383,122 391,116 410,121 419,115 430,115 440,119 490,162 511,159 515,189 533,107 631,71 637,60 581,299 378,418 312,418" /></svg>