<?xml version="1.0" encoding="utf-8" ?>
<svg baseProfile="tiny" height="100%" version="1.2" width="100%" xmlns="http://www.w3.org/2000/svg" xmlns:ev="http://www.w3.org/2001/xml-events" xmlns:xlink="http://www.w3.org/1999/xlink"><defs /><polyline points="208,186 207,187 210,185 212,184 213,183 216,181 219,177 223,173 224,172 232,165 234,164 236,163 238,162 239,162 240,161 241,161 243,160 245,159 246,159 249,158 251,157 253,156 255,155 257,154 265,154 266,154 269,154 271,153 272,153 274,152 276,151 277,151 281,151 282,151 286,152 287,152 292,153 293,153 300,154 301,154 303,155 308,159 310,160 312,161 313,161 315,162 317,163 319,164 320,165 322,166 323,167 326,169 327,170 331,174 332,175 340,183 341,184 344,186 345,187 348,190 349,191 351,194 352,195 353,197 354,199 355,201 355,202 356,205 356,206 357,208 357,209 358,211 358,212 359,214 360,217 361,220 361,221 362,226 362,227 363,229 363,230 364,235 364,236 364,245 364,246 363,249 363,250 362,258 362,259 361,261 361,262 360,264 360,265 359,267 358,269 357,270 356,272 355,274 354,276 353,278 352,280 351,282 350,284 349,286 349,287 348,289 347,291 344,295 343,297 342,299 341,302 340,304 339,306 338,308 331,316 330,321 328,324 325,326 322,329 321,331 320,333 320,334 319,338 319,339 318,343 318,344 317,350 317,351 317,358 318,360 323,366 326,370 329,372 332,373 334,374 335,374 337,375 339,376 340,376 343,377 344,377 348,377 349,377 351,376 352,376 358,376 359,376 364,377 365,377 375,378 384,386 386,387 388,388 392,389 395,393 396,394 406,405 407,407 408,408 409,410 410,412 411,413 412,416 408,418 407,418 404,419 403,419 397,420 396,420 379,421 377,421 375,421 359,420 358,420 314,420 313,420 307,420 306,420 295,420 294,420 281,421 280,421 200,421 199,421 186,360 185,360 181,361 180,361 170,362 169,362 164,363 163,363 156,364 155,364 150,365 149,365 143,366 142,366 139,367 137,368 135,369 133,370 129,371 128,371 126,372 124,373 121,376 120,377 118,380 117,381 114,385 113,387 112,388 112,389 111,391 110,393 109,395 108,396 107,398 106,399 105,401 104,402 102,405 101,407 100,409 99,411 98,414 101,416 103,417 104,417 109,418 110,418 114,419 115,419 127,420 128,420 190,359 191,359 197,358 198,358 201,357 202,357 204,356 206,355 208,354 211,352 212,351 216,348 218,347 219,346 222,345 223,342 224,338 224,337 224,325 224,324 223,319 223,318 222,315 222,314 221,312 220,310 212,301 211,299 210,298 210,297 209,295 208,292 208,291 207,288 206,286 206,285 205,284 205,283 204,282 203,280 202,278 201,277 200,275 198,272 197,270 196,269 195,267 193,264 192,262 191,260 190,258 189,256 189,255 188,252 188,251 187,245 187,244 187,235 187,234 188,229 188,228 189,222 190,219 191,216 191,215 192,211 193,208 194,202 194,201 195,199 395,232 396,230 397,227 400,226 406,226 408,227 413,232 414,233 415,235 416,237 417,238 418,240 419,242 420,244 421,245 421,246 422,247 422,248 423,249 424,251 425,253 426,254 428,257 429,258 431,261 433,264 434,266 435,267 437,271 440,272 443,270 443,266 443,265 442,262 442,261 441,257 441,256 440,248 440,247 439,234 439,233 438,226 438,225 437,217 437,216 437,207 438,204 441,203 447,203 449,204 452,206 454,209 455,211 455,212 456,214 456,215 457,218 457,219 458,221 458,222 459,225 459,226 460,230 460,231 461,234 461,235 462,238 462,239 463,242 463,243 464,245 464,246 465,248 465,249 466,253 466,254 467,257 467,258 468,261 471,263 472,263 475,261 476,255 476,254 477,250 477,249 478,245 478,244 479,240 479,239 480,232 480,231 481,221 481,220 482,213 485,209 488,208 490,208 492,209 493,209 495,210 499,213 500,215 500,216 500,241 500,242 499,267 499,268 499,274 499,275 500,281 503,283 507,283 509,282 511,281 512,280 514,279 515,278 534,290 535,289 538,285 539,284 540,282 541,281 542,279 543,278 544,276 545,275 546,273 547,272 548,270 549,269 550,267 552,264 553,262 554,260 555,259 555,258 556,257 556,256 557,254 557,250 556,247 553,246 546,246 544,247 541,250 540,251 535,257 534,258 532,261 531,262 531,294 530,295 527,299 526,300 525,302 524,304 523,306 522,308 522,309 521,313 521,314 520,320 520,321 519,329 519,330 518,336 518,337 517,342 517,343 516,348 516,349 515,352 515,353 514,355 513,358 512,360 512,361 511,365 511,366 511,393 511,394 512,400 512,401 513,405 513,406 514,410 514,411 514,418 512,420 509,421 508,421 460,421 457,419 455,416 454,413 454,412 453,408 453,407 452,402 452,401 451,395 451,394 450,391 450,390 449,387 448,385 447,383 444,380 442,379 441,378 440,378 439,377 438,377 437,376 436,376 435,375 434,375 433,374 432,374 431,373 430,373 429,372 427,371 425,370 422,368 420,367 417,365 415,364 412,362 410,361 409,360 404,356 403,355 399,352 398,351 396,350 393,348 391,347 389,346 387,345 385,344 384,344 382,343 380,342 378,341 377,341 376,340 375,340 374,339 373,339 372,338 371,338 369,337 367,336 365,335 363,334 361,333 359,331 357,328 357,322 359,319 362,317 373,317 374,317 379,318 380,318 383,319 384,319 386,320 387,320 390,321 391,321 393,322 396,323 398,324 401,325 403,326 406,327 408,328 409,328 413,329 414,329 417,329 419,328 422,325 423,322 423,321 424,317 424,316 424,306 424,305 423,302 423,301 422,298 422,297 421,295 420,293 420,292 419,291 419,290 418,289 417,287 416,285 415,283 414,282 414,281 413,280 413,279 412,278 412,277 411,276 411,275 410,274 410,273 409,271 408,269 408,268 407,266 406,263 405,261 404,259 404,258 403,257 403,256 402,255 402,254 401,253 401,252 400,250 399,248 398,245 397,243 396,240 395,237 395,236" stroke="black" stroke-width="3" style="fill-opacity:0;" /><polyline points="204,192 206,191 207,190 209,189 214,184 216,181 227,171 229,170 231,169 232,169 233,168 234,168 235,167 236,167 238,166 240,165 241,165 243,164 245,163 247,162 249,161 251,160 264,159 266,158 267,158 269,157 276,157 277,157 281,158 282,158 291,159 292,159 294,160 296,161 299,163 301,164 302,165 303,165 305,166 307,167 309,168 310,168 311,169 313,170 316,172 317,173 319,174 320,175 324,179 325,180 328,183 329,184 334,188 335,189 341,195 342,196 344,199 345,201 346,203 347,205 347,206 348,209 348,210 349,212 350,215 351,217 352,220 353,223 353,224 354,227 354,228 355,230 355,231 356,233 356,234 356,248 356,249 355,252 355,253 354,261 354,262 353,265 353,266 352,268 351,270 350,272 349,274 348,276 347,278 346,280 345,282 344,284 343,286 343,287 342,290 341,292 340,293 338,296 337,298 336,300 335,302 335,303 334,304 334,305 333,306 333,307 332,308 331,310 326,315 325,319 325,320 324,322 321,325 317,328 315,331 314,333 313,337 313,338 312,342 312,343 311,349 311,350 311,359 312,361 313,362 315,365 316,367 317,369 321,372 323,372 326,373 327,373 328,374 329,374 331,375 334,376 335,376 340,376 341,376 343,375 344,375 356,375 357,375 364,375 365,375 367,376 370,379 372,383 375,384 380,384 382,384 387,389 390,392 391,393 393,394 395,396 397,398 398,400 400,404 403,405 405,406 406,406 408,407 410,408 412,409 415,412 415,416 412,418 410,419 409,419 397,420 396,420 376,421 375,421 369,421 368,421 354,420 353,420 278,420 277,420 268,421 267,421 199,421 198,421 183,362 182,362 186,361 187,361 193,360 194,360 197,359 198,359 200,358 202,357 204,356 207,354 208,353 212,350 214,349 215,348 219,345 220,343 220,342 220,323 220,322 219,319 219,318 218,315 218,314 217,311 216,309 210,302 209,300 208,298 207,296 207,295 206,292 205,290 205,289 204,288 204,287 203,286 202,284 201,282 200,281 199,279 198,278 196,275 195,274 194,272 193,271 192,269 190,266 189,264 188,262 187,260 187,259 186,256 186,255 185,251 185,250 185,237 185,236 186,229 186,228 187,225 187,224 188,222 188,221 189,218 189,217 190,214 190,213 191,207 192,205 193,203 178,363 177,363 168,364 167,364 161,365 160,365 154,366 153,366 150,367 149,367 146,368 145,368 142,369 140,370 138,371 136,372 134,373 127,374 124,376 123,377 120,380 118,383 112,390 111,392 110,394 109,396 103,403 102,407 102,408 101,410 100,415 103,417 105,418 106,418 112,419 113,419 120,420 121,420 364,301 364,299 364,297 365,295 369,292 377,292 378,292 380,293 381,293 383,294 384,294 386,295 387,295 389,296 390,296 393,297 394,297 397,298 398,298 401,299 403,300 404,300 405,301 406,301 407,302 408,302 409,303 410,303 412,304 414,305 415,305 418,306 419,306 425,306 428,304 430,301 431,299 431,298 432,296 432,295 433,293 433,292 433,275 433,274 432,271 432,270 431,268 431,267 430,265 429,262 428,260 428,259 427,257 426,254 425,251 425,250 424,247 424,246 423,243 423,242 422,239 422,238 421,235 421,234 420,232 420,231 419,229 419,228 418,226 418,225 417,223 417,222 416,219 416,218 415,215 415,214 415,210 417,206 425,205 427,206 430,208 432,210 433,212 434,214 435,215 435,216 436,218 437,220 438,222 438,223 439,225 440,227 441,229 441,230 442,231 442,232 443,233 443,234 444,235 445,237 446,239 447,241 448,242 448,243 449,244 449,245 450,246 450,247 451,248 452,251 455,252 458,250 458,243 458,242 458,231 458,230 459,218 459,217 480,215 480,214 481,222 481,223 482,228 482,229 483,238 483,239 484,247 488,250 491,248 492,246 493,243 494,241 494,240 495,238 496,236 496,235 497,234 497,233 498,232 498,231 499,230 499,229 500,227 501,225 502,222 503,220 504,217 505,215 505,214 506,212 506,211 507,209 507,208 508,206 508,205 509,203 510,201 511,198 514,197 517,197 518,197 520,198 522,199 526,202 526,209 526,210 525,213 525,214 524,218 524,219 523,222 523,223 522,225 522,226 521,229 521,230 520,232 520,233 519,236 519,237 518,240 518,241 517,243 517,244 516,247 515,250 514,253 514,254 513,257 513,258 512,263 512,264 512,269 516,272 522,272 523,272 526,271 527,271 529,270 531,269 532,269 533,268 535,267 538,265 540,264 541,263 543,262 545,261 546,260 552,255 553,254 556,252 557,251 559,250 560,249 562,248 564,247 573,247 575,249 575,252 574,254 573,256 567,264 547,282 546,283 543,285 542,286 539,288 538,289 530,297 529,299 528,301 527,303 527,304 526,306 526,307 525,310 525,311 524,315 524,316 523,319 523,320 522,322 522,323 521,326 521,327 520,330 520,331 519,334 519,335 518,337 518,338 517,340 516,342 516,343 515,344 515,345 514,346 513,348 512,350 511,352 511,353 510,357 510,358 510,370 510,371 511,379 511,380 512,385 512,386 513,390 513,391 514,395 514,396 515,399 515,400 516,402 516,403 517,406 517,407 518,409 518,410 519,413 519,414 518,419 514,421 513,421 475,422 474,422 471,422 470,422 460,421 457,418 456,416 455,411 455,410 454,404 454,403 453,399 453,398 452,393 452,392 451,388 451,387 450,381 450,380 449,376 449,375 448,372 447,369 446,367 445,365 444,363 443,362 442,360 440,358 438,356 435,354 434,353 432,352 431,351 428,349 427,348 424,346 423,345 420,343 419,342 416,340 415,339 406,331 405,330 399,325 398,324 396,323 395,322 393,321 391,320 390,319 388,318 386,317 383,315 381,314 379,313 378,312 377,312 376,311 375,311 374,310 372,309 370,308 369,307 365,303 460,190 460,189 461,187 463,185 466,184 468,184 470,185 472,186 475,187 476,190 477,192 478,197 478,198 479,204 479,205" stroke="black" stroke-width="3" style="fill-opacity:0;" /><polyline points="198,202 196,204 194,207 193,209 192,214 192,215 191,218 191,219 190,221 190,222 189,225 189,226 188,228 188,229 187,234 187,235 186,240 186,241 186,250 186,251 187,255 187,256 188,259 189,262 190,264 191,266 192,268 193,270 195,273 197,276 198,277 200,280 201,281 202,283 203,284 204,286 205,288 206,290 207,293 207,294 208,296 209,298 210,300 213,304 214,306 215,308 216,311 216,312 217,316 217,317 218,321 218,322 219,329 219,330 219,338 219,339 218,345 217,347 214,350 212,351 211,352 209,353 207,354 206,355 202,358 200,359 199,360 198,360 196,361 194,362 193,362 188,363 187,363 183,364 182,364 179,365 178,365 172,366 171,366 166,367 165,367 156,368 155,368 152,369 151,369 148,370 147,370 145,371 144,371 142,372 140,373 139,373 138,374 137,374 135,375 128,376 123,380 121,382 119,385 118,386 117,389 112,392 110,395 109,397 104,403 103,404 102,406 101,411 101,412 101,415 104,417 106,418 114,419 115,419 121,420 122,420 199,421 200,421 253,421 254,421 264,420 265,420 277,419 278,419 288,419 289,419 296,420 298,420 300,420 346,420 347,420 358,421 359,421 368,421 369,421 379,421 380,421 404,420 405,420 417,419 418,419 425,417 423,412 422,411 420,410 418,409 417,408 416,408 415,407 413,406 411,405 410,404 408,403 406,402 405,401 404,401 403,400 402,400 401,399 399,398 394,392 390,390 388,389 386,388 379,382 373,381 371,380 369,379 368,378 366,377 363,375 361,374 358,373 356,373 339,374 338,374 336,375 335,375 327,375 326,375 324,374 322,373 321,373 319,372 316,371 313,370 307,362 306,360 306,351 306,350 307,345 307,344 308,340 308,339 309,336 309,335 310,332 311,330 314,327 315,326 319,322 320,320 321,317 327,310 328,308 329,307 329,306 330,305 330,304 331,303 331,302 332,301 332,300 333,299 334,297 337,293 338,291 339,289 340,287 341,285 342,283 343,282 343,281 344,280 345,278 346,276 347,274 348,273 348,272 349,270 350,268 350,267 351,261 351,260 352,256 352,255 353,252 353,251 353,238 353,237 352,234 352,233 351,231 351,230 350,227 350,226 349,224 348,221 347,219 347,218 346,214 346,213 345,210 344,208 343,206 342,205 341,203 340,202 338,199 337,198 332,193 331,192 322,183 318,180 317,179 314,177 313,176 311,175 309,174 307,173 305,172 303,171 301,170 299,169 298,168 296,167 294,166 292,165 291,165 283,164 282,164 279,163 278,163 269,163 266,164 258,164 257,164 253,165 251,166 249,167 248,168 247,168 246,169 245,169 244,170 243,170 242,171 241,171 240,172 239,172 237,173 235,174 232,175 230,176 229,176 227,177 224,179 223,180 217,186 216,187 212,191 209,193 207,194 206,195 394,280 394,281 395,284 400,289 401,290 403,291 404,292 410,297 411,298 415,301 416,302 420,305 421,306 429,288 428,287 426,286 424,285 422,284 420,283 418,282 416,281 414,280 412,279 410,278 409,278 407,277 406,277 404,276 403,276 397,276 431,289 433,290 435,291 438,291 441,290 442,287 442,271 442,270 441,266 441,265 440,261 440,260 439,257 438,254 437,252 436,249 435,247 434,244 433,242 433,241 432,239 432,238 431,235 431,234 430,231 430,230 429,227 429,226 428,224 428,223 427,221 426,218 425,216 425,215 424,212 424,211 423,208 423,207 423,202 426,198 432,198 434,199 438,203 440,206 441,208 442,210 443,212 444,214 444,215 445,217 446,219 447,221 449,224 450,226 452,230 455,231 458,229 481,224 481,223 482,227 482,228 483,231 486,233 490,230 491,227 491,226 492,223 492,222 493,220 493,219 494,216 494,215 495,213 495,212 496,208 496,207 497,203 497,202 498,197 498,196 499,192 499,191 500,189 502,187 508,187 510,188 513,191 514,193 514,203 514,204 513,214 513,215 512,226 512,227 511,232 511,233 510,241 510,242 510,250 514,253 517,252 519,251 520,251 521,250 522,250 523,249 525,248 527,247 528,246 534,241 535,240 541,234 542,233 547,228 548,227 552,224 554,223 559,223 563,226 563,229 563,230 562,232 561,234 560,235 559,237 558,238 557,240 556,241 553,245 552,246 549,250 548,251 546,254 545,255 532,269 531,270 530,272 529,274 528,276 527,279 527,280 526,288 526,289 525,297 525,298 524,305 524,306 523,310 523,311 522,313 522,314 521,316 521,317 520,319 520,320 519,327 519,328 518,336 518,337 518,355 518,356 519,364 519,365 520,370 520,371 521,376 521,377 522,381 522,382 523,385 523,386 524,389 524,390 525,394 525,395 526,398 526,399 527,403 527,404 528,408 528,409 528,418 526,420 524,421 523,421 466,420 464,387 464,386 463,378 463,377 462,370 462,369 461,359 461,358 460,352 460,351 459,348 459,347 458,345 458,344 457,342 456,340 454,337 453,336 445,328 444,327 437,321 436,320 480,219 480,218 479,214 479,213 478,210 478,209 477,206 477,205 476,201 476,200 475,196 475,195 474,192 474,191 473,188 473,187 472,185 470,181 467,180 465,179 464,179 461,179 458,180 457,183 457,190 457,191 458,202 458,203" stroke="black" stroke-width="3" style="fill-opacity:0;" /></svg>