<?xml version="1.0" encoding="utf-8" ?>
<svg baseProfile="full" height="640" version="1.1" width="800" xmlns="http://www.w3.org/2000/svg" xmlns:ev="http://www.w3.org/2001/xml-events" xmlns:xlink="http://www.w3.org/1999/xlink"><defs /><polyline points="5,271 8,272 11,273 14,274 17,275 20,276 24,278 28,280 33,280 42,279 48,278 51,277 54,276 61,276 64,277 68,279 73,281 77,283 80,284 84,285 93,285 98,284 103,283 107,282 110,281 118,281 121,280 125,277 129,272 133,270 138,271 141,272 145,273 148,274 153,274 156,273 162,272 166,270 169,269 178,268 181,269 186,269 189,268 193,266 198,265 202,264 205,263 209,262 215,259 226,248 228,244 229,239 230,235 231,232 232,228 233,225 234,222 237,217 238,214 240,210 241,207 242,204 243,201 244,198 245,195 246,192 249,187 253,182 254,176 255,173 262,164 265,159 268,156 272,154 276,153 279,152 282,151 285,149 290,144 293,140 298,137 303,135 306,134 326,133 329,132 333,131 337,131 340,129 342,126 344,123 348,119 351,117 356,112 359,110 369,109 372,110 376,112 385,118 389,119 392,120 395,121 398,122 402,123 405,124 411,125 419,125 422,124 429,123 433,125 437,128 441,130 444,131 451,138 452,142 453,149 458,155 462,157 465,158 468,157 472,154 476,156 471,138 470,133 469,130 466,125 458,116 458,103 459,92 460,81 461,67 461,63 460,60 457,58 453,57 441,56 432,56 420,56 386,56 520,74 524,71 522,79 526,80 531,81 535,81 539,80 542,79 545,74 541,71 583,70 584,75 588,75 588,68 573,142 596,157 597,160 599,156 603,157 603,160 511,317 508,317 505,322 505,327 506,331 506,336 505,339 504,342 499,349 497,352 495,356 494,359 493,362 493,367 494,370 495,373 495,381 493,385 490,389 488,393 485,399 484,402 483,406 479,412 479,417 483,420 495,421 506,421 511,421 539,421 545,420 548,419 552,419 576,420 624,420 632,420 631,366 619,366 593,367 573,368 553,369 543,369 540,367 539,364 538,359 537,356 535,353 532,348 529,343 526,338 524,334 522,331 520,328 518,325 516,322 462,335 461,332 460,329 458,326 456,322 453,317 449,312 443,306 440,305 435,304 426,304 423,305 414,306 409,308 404,308 401,307 396,305 391,305 389,308 386,309 383,308 381,314 377,314 373,316 369,318 366,319 362,319 351,309 351,305 354,300 356,296 357,293 358,290 359,286 364,286 368,292 370,295 367,275 370,273 372,270 373,267 374,258 380,253 385,252 388,251 392,250 398,249 404,248 408,247 410,257 407,258 401,262 399,266 400,270 402,275 408,280 413,281 417,280 421,278 424,276 427,274 431,272 436,269 430,261 427,259 424,258 420,257 419,244 418,241 416,237 412,235 409,233 404,231 401,230 391,230 388,231 383,233 380,234 373,235 367,231 364,229 361,228 335,228 332,232 331,235 330,238 326,240 323,242 319,244 315,246 312,249 314,254 318,255 326,256 330,257 333,258 337,260 341,263 348,269 351,271 354,273 357,274 361,275 385,316 389,319 393,323 394,326 395,334 395,338 392,340 389,341 386,340 383,338 381,335 379,332 373,331 365,336 360,337 354,342 353,345 353,351 356,357 361,358 367,360 375,360 379,359 384,359 388,360 391,361 400,368 404,370 407,369 406,366 405,362 408,360 411,362 416,367 413,371 418,375 421,378 421,382 420,388 418,392 418,396 422,399 429,399 432,400 435,401 440,395 443,392 448,388 453,384 452,378 455,376 459,376 462,372 463,369 464,362 464,346 463,343 421,372 400,411 397,410 392,409 387,408 381,408 378,409 372,412 365,414 364,417 374,419 379,420 386,420 396,419 401,415 328,343 327,340 324,335 322,330 319,330 316,332 316,335 319,341 322,345 99,411 99,415 96,417 89,417 86,409 89,408 93,407 96,408 82,407 80,403 77,402 74,403 72,400 72,396 69,392 65,396 66,399 73,408 74,411 80,416" stroke="black" stroke-width="3" style="fill-opacity:0;" /><polyline points="2,181 4,184 6,187 8,191 10,194 13,198 18,201 35,202 38,203 43,205 46,206 49,208 53,210 58,213 62,215 65,217 68,218 72,220 77,222 80,223 83,224 86,225 89,226 92,227 95,228 99,230 102,231 105,233 108,234 111,236 114,238 118,241 122,244 132,254 135,258 137,261 144,267 149,268 160,269 168,270 171,271 174,272 177,273 182,273 186,273 194,273 197,272 203,272 209,272 224,272 229,273 233,274 237,276 240,277 245,277 248,276 253,275 259,275 263,276 266,277 269,278 273,277 276,276 286,275 297,274 304,268 307,263 309,259 310,256 311,253 312,250 314,246 319,239 322,233 324,230 328,225 333,219 335,216 337,213 339,210 341,207 343,204 347,198 354,193 360,187 362,184 365,180 369,177 377,170 381,168 386,167 393,166 402,159 405,157 408,156 411,155 430,155 439,156 442,157 446,158 449,157 453,154 457,152 465,151 471,145 474,144 485,143 488,146 492,149 498,154 502,156 505,157 508,158 511,159 514,160 518,162 521,163 524,165 527,166 530,167 533,168 537,170 540,172 545,178 548,180 551,178 551,173 550,170 548,166 546,162 539,155 539,147 540,139 541,133 542,126 543,119 544,112 545,106 546,98 548,94 550,91 550,85 550,79 551,70 552,63 553,60 556,59 566,59 586,59 617,117 614,119 614,122 617,124 621,125 636,125 634,116 638,115 502,275 503,280 500,282 496,282 492,281 497,272 491,268 483,267 480,266 474,266 466,266 462,264 460,258 455,254 452,253 447,251 442,248 438,246 435,245 421,245 418,247 418,254 413,258 409,260 406,262 403,267 408,270 412,271 417,272 421,274 424,276 427,279 429,283 430,286 431,289 435,294 439,296 442,297 445,298 455,299 464,299 467,297 470,298 473,296 476,295 483,294 490,293 496,292 500,292 503,293 507,295 512,298 515,300 518,303 520,307 521,310 522,314 522,318 519,320 516,319 513,318 507,318 503,319 495,319 492,318 489,316 486,314 483,311 480,306 477,305 473,304 470,302 467,292 467,288 469,285 472,283 476,282 480,281 451,309 448,308 444,310 442,315 455,313 457,317 458,320 463,327 468,332 471,333 475,334 478,335 481,337 484,338 494,338 507,338 510,339 515,342 518,344 522,348 524,352 526,355 527,358 528,361 529,364 530,367 531,373 532,379 532,386 531,400 530,403 528,407 528,413 532,418 536,420 539,421 548,421 553,419 556,416 558,413 560,408 562,405 565,400 569,396 571,393 573,389 574,379 575,375 576,372 579,367 584,362 587,361 590,362 594,366 597,371 599,374 601,377 603,381 605,384 606,387 608,390 610,394 612,398 614,402 616,407 618,411 620,415 623,416 627,417 479,410 478,415 475,417 467,417 464,416 461,414 459,411 453,405 450,404 445,403 438,402 432,401 429,403 429,406 432,408 436,409 439,410 442,411 445,413 449,415 442,417 435,417 430,417 423,418 418,419 404,420 354,421 317,421 312,420 287,420 282,421 275,421 237,420 230,419 223,418 218,417 215,416 210,415 207,413 199,406 195,405 186,397 183,395 179,392 174,388 171,386 165,380 162,376 160,373 158,370 154,366 150,362 148,357 145,356 142,354 139,353 138,350 136,346 133,345 129,344 126,343 123,342 120,341 117,340 114,339 111,337 98,326 93,324 88,327 85,329 82,330 78,331 75,330 69,325 65,325 61,329 63,334 65,338 64,341 59,345 59,352 60,355 61,358 67,364 69,368 74,373 89,388 99,399 101,402 108,410 111,416 96,418 88,419 79,420 66,421 34,421 76,316 79,316 84,314 86,310 91,310 94,312 94,316 91,318 88,317 80,306 77,305 73,303 70,302 66,304 64,309 69,312 55,306 52,308 49,306 52,302 368,333 374,327 378,327 381,328 387,329 393,330 396,331 399,332 405,329 409,328 414,331 414,335 413,338 412,342 412,353 413,356 417,361 417,364 412,367 407,368 402,369 397,368 394,367 386,367 382,369 379,370 376,369 375,366 374,361 371,356 369,352 368,349 396,302 393,300 391,297 390,294 390,287 395,284 402,284 405,285 408,286 413,288 416,290 420,293 422,296 422,299 417,302 413,303 409,305 405,306 400,304 433,326 433,329 436,332 441,337 443,341 444,344 447,347 442,351 437,353 433,355 425,362 425,366 426,369 427,372 430,374 433,376 436,377 443,384 448,385 451,386 456,387 463,388 466,389 469,392 472,396 474,399 477,405 466,366 469,365 470,360 464,355 464,352 467,348 467,344 464,340 460,339 456,340 452,351 455,353 460,356 461,362" stroke="black" stroke-width="3" style="fill-opacity:0;" /></svg>