<?xml version="1.0" encoding="utf-8" ?>
<svg baseProfile="full" height="640" version="1.1" width="800" xmlns="http://www.w3.org/2000/svg" xmlns:ev="http://www.w3.org/2001/xml-events" xmlns:xlink="http://www.w3.org/1999/xlink"><defs /><polyline points="2,459 6,457 8,462 5,464 2,466 11,460 14,458 17,456 21,452 23,449 24,446 24,443 21,443 17,448 11,454 77,416 81,415 81,411 86,410 285,398 288,398 292,400 296,402 300,404 304,406 307,407 310,409 313,411 317,416 316,419 311,420 308,419 305,417 302,415 299,413 295,410 290,406 306,378 303,374 304,369 305,366 306,363 307,357 310,355 314,355 314,360 313,363 312,366 311,370 310,373 336,346 336,342 421,336 422,333 459,321 458,318 457,314 458,310 465,308 469,311 474,316 476,319 477,322 478,325 478,331 477,334 476,337 475,340 474,343 474,348 475,351 477,356 479,361 480,364 482,367 484,371 486,374 483,377 487,379 479,374 474,369 472,366 470,361 469,358 469,350 469,342 468,339 465,333 463,330 461,326 453,298 456,294 457,289 458,286 459,283 447,288 445,285 444,282 443,279 442,276 441,265 439,261 435,255 434,252 433,248 423,246 420,246 419,243 417,240 416,237 415,234 414,231 413,227 412,221 420,224 421,229 422,234 423,238 424,241 433,215 434,207 433,195 436,190 437,187 438,181 439,163 440,150 441,143 442,139 443,134 444,127 445,124 447,120 453,114 457,112 463,112 466,114 469,118 470,121 471,124 471,140 470,148 469,154 468,161 467,166 466,171 465,175 464,179 463,183 462,186 461,190 460,193 459,197 458,200 457,203 455,206 453,209 451,212 451,215 452,218 453,221 454,228 455,234 456,241 457,247 458,265 459,268 449,292 480,290 480,287 481,284 485,280 490,275 492,272 493,269 494,265 495,262 497,257 498,254 498,247 496,242 495,238 495,232 496,227 493,225 490,224 487,223 484,222 480,219 477,217 472,214 469,210 475,207 482,207 485,208 488,209 493,211 496,212 499,213 502,214 506,215 509,216 514,219 517,221 521,223 524,224 529,227 529,231 526,234 523,239 522,242 520,245 517,248 513,250 510,253 509,256 509,267 510,274 511,278 511,281 510,284 508,288 506,292 504,295 501,299 496,302 485,301 483,297 481,293 516,333 520,334 531,340 536,338 540,337 543,336 542,346 546,347 549,349 550,352 553,352 556,351 558,347 562,342 562,339 558,337 554,336 537,345 590,261 587,259 587,256 590,250 591,241 594,239 599,235 603,233 607,231 611,229 614,227 618,224 621,223 624,222 629,221 632,222 634,225 634,235 633,238 630,243 628,246 626,249 623,251 620,253 617,255 614,257 608,260 605,261 581,240 581,237 575,246 572,245 569,241 568,238 561,159 564,158 569,156 572,154 574,150 555,159 552,158 549,155 549,151 552,149 516,95 512,93 510,90 508,86 507,82 508,76 513,70 516,69 519,69 529,64 529,60 532,53 529,51 526,52 523,53 516,47 514,50 525,44 529,42 533,40 537,39 540,37 537,31 537,27 540,24 543,22 546,20 549,17 549,13 547,9 545,6 544,3 569,36 569,39 570,42 569,46 563,50 563,53 566,55 570,56 570,62 569,65 569,69 572,71 575,72 578,73 579,76 572,78 567,75 555,74 553,69 548,67 543,66 540,67 535,72 533,69 528,78 528,81 526,86 489,56 489,51 481,49 476,52 472,57 471,61 468,63 465,64 462,66 462,70 465,72 469,72 473,66 476,64 480,63 484,61 492,39 489,38 493,36 436,38 435,35 432,33 428,37 428,48 431,52 434,52 436,49 406,167 401,167 408,172 409,175 414,178 417,179 420,179 421,189 420,198 412,200 412,191 409,189 403,194 401,197 399,201 395,206 389,209 388,206 388,200 393,192 394,188 395,174 391,212 588,91 595,90 600,92 605,92 608,91 609,88 609,83 606,81 600,80 595,78 591,82 592,85 610,72 607,68 608,64 612,59 617,56 620,57 623,59 627,64 626,67 623,70 620,71 616,72 633,54 638,48 632,40 629,42 626,46 626,38 623,33 620,32 615,32 612,29 610,26 608,23 603,16 607,13 612,11 615,11 618,12 622,12 627,9 630,8 633,9 638,11 600,33 600,36 597,36 597,33 588,24 593,20 593,16 594,9 593,5 592,2 579,27 576,30 573,33 581,51 580,54 581,57 586,58 590,55 590,52 586,49" stroke="black" stroke-width="3" style="fill-opacity:0;" /><polyline points="12,38 21,38 52,111 58,109 55,126 55,131 52,130 127,224 145,225 147,222 151,222 153,225 168,272 216,308 207,350 203,351 198,354 194,354 192,357 195,363 200,366 200,373 200,378 201,381 202,388 205,391 208,391 213,388 216,386 219,384 218,374 222,373 224,369 228,365 233,360 236,358 240,356 246,355 253,360 258,357 263,354 266,352 270,349 273,347 276,345 279,343 283,340 287,337 290,335 293,333 296,331 301,328 304,326 307,324 314,320 317,318 320,316 324,313 329,310 335,307 340,302 343,300 349,299 352,298 356,296 359,294 362,292 369,287 372,286 363,281 360,282 357,283 347,288 344,290 340,293 336,296 328,277 322,275 316,306 311,308 307,310 304,312 301,314 294,318 291,320 286,323 281,326 278,328 275,330 271,333 265,338 256,346 247,365 242,368 239,370 236,375 239,377 244,378 250,378 253,376 258,373 259,378 253,370 248,385 251,386 264,392 267,393 271,394 277,397 281,401 285,405 280,411 276,409 275,418 276,421 281,418 283,422 283,426 280,426 293,412 297,414 300,415 303,416 306,417 312,416 310,411 304,406 301,404 298,402 295,400 292,398 289,396 284,393 278,390 272,385 268,383 293,370 298,367 299,364 300,359 296,357 293,355 305,354 311,350 315,345 320,343 320,348 319,351 318,361 316,366 314,371 312,376 311,379 309,382 306,384 302,384 299,381 297,377 331,351 330,348 331,343 334,338 337,338 339,342 339,350 336,352 348,360 385,376 385,380 388,380 391,377 394,372 395,369 393,365 389,366 387,371 391,358 392,355 390,334 387,334 395,333 395,327 396,324 400,321 404,321 407,322 410,322 414,319 415,316 416,313 416,308 412,304 412,298 414,295 417,295 422,298 428,300 429,306 432,308 435,307 439,307 442,308 446,305 446,301 442,299 435,297 435,293 440,289 440,286 439,281 438,270 433,266 429,265 424,264 421,265 417,268 411,271 407,272 404,273 400,275 395,277 390,279 387,280 383,281 381,274 376,275 392,269 395,268 398,267 401,266 406,255 409,256 412,260 402,253 398,248 398,244 402,239 408,238 411,236 411,232 410,225 409,215 408,207 405,205 401,206 396,207 389,212 386,208 385,205 385,200 387,196 390,192 391,189 392,185 393,173 395,169 400,164 405,162 408,163 411,164 415,163 418,162 421,161 425,161 428,162 431,163 435,160 435,157 434,154 433,151 433,145 434,142 435,139 436,134 433,131 433,128 435,125 424,124 421,124 422,119 421,109 424,109 427,107 430,104 433,102 438,103 446,101 445,94 438,93 435,94 428,98 423,96 420,96 417,99 417,105 418,108 398,120 394,119 393,124 396,127 380,134 379,137 375,139 371,140 368,137 362,138 361,142 366,143 374,134 374,126 371,126 375,123 379,123 379,119 376,119 402,153 402,156 420,177 421,181 424,182 430,178 435,175 435,171 432,169 428,171 425,172 410,190 407,188 403,191 401,194 406,199 409,197 410,194 449,209 452,202 453,199 454,196 455,193 456,189 457,185 458,181 459,176 460,169 461,162 462,155 463,150 464,146 465,143 468,136 469,133 470,130 470,118 469,115 465,110 462,109 456,109 453,110 449,112 446,114 457,95 460,96 456,92 455,89 454,85 446,80 443,77 442,73 445,67 449,64 452,63 458,59 458,55 456,51 456,47 459,44 462,43 477,32 480,31 487,25 491,23 497,24 504,28 506,32 505,35 512,25 509,23 510,20 514,20 515,23 529,27 530,24 528,30 527,33 524,38 517,42 513,45 511,55 511,59 507,65 503,73 498,81 497,84 497,94 498,100 499,103 500,106 500,115 502,119 507,125 510,127 514,127 517,126 523,122 524,109 525,106 527,101 527,97 527,90 529,87 531,83 532,78 538,73 541,72 544,71 549,71 552,73 557,78 560,79 565,80 568,81 571,82 580,82 584,80 584,76 581,71 578,69 572,65 572,61 573,58 576,57 575,49 571,46 571,41 575,39 581,38 584,35 587,30 590,28 593,30 591,40 590,43 587,45 581,46 584,61 589,64 592,67 598,72 601,77 596,80 593,81 588,83 585,88 585,92 587,97 588,101 588,105 584,108 579,108 575,106 570,101 565,96 559,97 557,117 556,122 557,125 562,129 565,130 569,131 572,130 575,129 579,128 581,123 583,120 589,115 592,114 595,113 600,107 604,105 610,105 614,106 620,106 620,103 617,100 612,96 612,93 612,83 612,80 615,78 621,77 626,74 629,73 636,73 621,48 618,49 615,48 614,44 619,39 622,41 622,45 637,13 631,8 627,5 620,7 616,6 609,12 606,13 599,8 599,3 535,8 531,4 535,14 535,17 507,2 504,2 461,16 458,12 460,22 449,22 448,18 438,29 439,33 433,25 429,27 426,31 423,37 422,42 423,46 424,49 429,55 433,56 438,52 439,49 429,80 431,83 430,86 425,85 425,82 465,78 470,75 473,72 475,68 468,84 469,87 470,90 470,94 493,53 493,46 535,144 539,143 543,142 548,141 552,140 555,139 559,138 565,138 568,139 576,140 585,141 593,142 599,142 616,142 620,144 620,148 614,155 610,157 607,158 604,159 601,160 596,161 593,162 583,167 580,168 573,168 561,167 550,167 544,168 540,168 536,167 533,166 528,161 527,158 527,150 530,147 510,225 513,226 516,227 522,231 524,234 524,238 522,241 520,244 519,247 518,250 517,253 516,260 515,264 514,267 513,270 512,278 511,281 510,284 501,296 500,302 499,305 495,308 493,320 496,322 500,323 504,325 510,330 514,333 514,336 507,338 503,336 499,334 496,332 492,328 490,324 487,322 480,321 477,320 473,318 470,320 471,324 473,327 476,333 477,336 477,341 476,344 475,347 475,353 476,358 477,361 479,366 482,367 485,365 488,360 492,360 495,363 498,366 498,371 492,374 489,376 489,379 491,382 493,385 496,389 499,394 499,397 495,397 492,396 490,392 488,389 482,382 480,379 472,370 470,366 468,361 467,358 466,345 465,342 463,338 458,334 454,336 452,340 450,343 451,350 452,353 448,352 448,355 445,350 441,349 440,342 441,339 443,332 440,330 442,326 441,323 440,319 443,317 446,318 449,320 449,324 448,327 445,328 435,332 431,333 427,336 424,340 421,345 416,349 413,349 412,343 415,336 415,331 412,329 402,333 450,363 449,371 450,375 446,377 445,374 466,312 469,311 470,308 471,305 472,302 475,296 476,283 480,278 485,272 485,266 483,263 481,260 481,243 482,240 482,236 479,234 474,236 467,236 464,235 461,232 459,229 457,226 455,223 456,220 450,224 450,236 451,246 452,255 453,263 454,280 455,286 456,291 457,306 462,310 527,323 530,324 541,321 546,322 552,317 551,313 543,314 550,330 545,333 541,335 537,338 537,345 536,348 533,353 541,355 549,351 553,348 562,339 566,337 569,336 573,333 572,329 569,327 564,328 556,329 568,308 571,309 574,309 578,302 578,295 572,291 565,288 562,287 558,289 558,295 561,301 574,267 577,268 580,269 585,271 588,272 592,272 595,271 598,270 602,268 605,266 612,260 615,258 618,256 628,247 633,242 635,238 636,234 636,227 635,224 630,220 624,220 619,221 616,222 613,224 610,226 602,230 597,231 585,231 564,231 560,232 557,233 554,235 553,241 555,244 561,249 566,249 569,248 574,253 568,258 568,262 506,225 502,224 495,221 492,220 484,220 480,220 477,219 474,218 636,139 637,136 291,243 210,355 211,358 212,361 213,370 214,373 231,384 192,396 191,399 189,402 186,406 180,412 177,414 174,416 171,418 168,420 165,422 160,425 155,426 154,423 157,420 160,418 168,410 178,399 183,394 187,393 190,393 151,430 146,432 145,435 145,438 142,438 142,435 139,438 142,441 148,435 162,447 166,447 169,450 172,456 175,457 178,456 181,457 184,460 185,464 182,467 182,470 185,476 195,471 191,466 162,465 160,470 155,472 149,477 162,459 161,451 135,449 133,452 130,446 127,448 122,452 119,454 115,458 113,461 111,464 109,467 104,473 102,477 113,477 115,474 117,471 119,468 123,463 85,407 82,407 88,394 82,388 84,385 87,380 83,379 80,379 78,376 74,374 76,371 80,369 83,369 86,368 84,373 92,365 96,366 97,372 105,391 103,394 122,385 127,385 130,383 133,378 133,375 133,371 137,368 139,365 141,361 134,358 130,358 123,363 119,368 118,371 119,379 79,391 77,382 75,351 74,348 75,344 73,341 73,335 76,335 79,336 84,337 87,338 90,340 90,348 86,349 79,344 126,319 16,363 17,368 8,369 8,366 4,364 3,360 9,357 11,352 8,345 7,341 4,337 3,349 5,371 1,380 4,382 5,386 8,389 11,391 15,394 16,398 22,398 24,394 19,390 21,385 19,381 18,378 27,385 4,397 22,411 54,476 344,476 350,472 349,468 344,461 381,461 382,458 387,457 392,462 395,468 396,471 396,475 393,478 387,473 384,468" stroke="black" stroke-width="3" style="fill-opacity:0;" /></svg>