<?xml version="1.0" encoding="utf-8" ?>
<svg baseProfile="full" height="640" version="1.1" width="800" xmlns="http://www.w3.org/2000/svg" xmlns:ev="http://www.w3.org/2001/xml-events" xmlns:xlink="http://www.w3.org/1999/xlink"><defs /><polyline points="62,191 62,195 68,196 65,188 68,186 71,185 76,185 80,188 85,184 96,183 102,186 109,182 114,182 117,183 122,185 128,188 131,189 134,190 137,194 137,202 137,207 138,213 138,231 137,234 132,236 127,236 124,235 121,234 120,231 119,228 118,225 118,215 119,212 119,203 113,197 110,196 104,196 77,196 68,234 71,237 71,247 70,253 62,257 61,265 60,274 69,274 59,283 58,286 53,290 69,292 69,308 68,320 67,334 52,321 51,318 47,314 43,312 40,311 15,310 5,310 2,311 10,290 62,246 61,242 61,236 52,353 51,357 50,361 50,372 50,381 66,386 65,401 64,404 59,408 55,408 52,406 50,403 24,400 23,393 22,387 21,383 19,379 16,379 13,382 8,386 5,387 15,411 10,414 6,416 20,415 24,414 70,422 70,425 74,428 81,429 90,430 102,430 106,428 109,426 115,420 116,417 112,413 106,412 86,412 83,413 80,415 76,417 73,419 84,463 89,462 92,461 95,459 98,458 103,456 108,454 111,452 115,450 119,448 123,446 128,444 133,442 136,440 140,438 143,437 146,436 150,436 154,436 158,434 164,431 169,429 174,426 177,423 179,420 183,416 187,412 190,410 193,405 190,403 185,402 182,400 180,397 179,393 179,378 180,372 184,368 189,365 185,357 185,354 189,348 190,339 191,336 192,333 193,327 194,323 194,314 190,309 192,299 196,296 200,294 204,292 213,291 218,288 218,283 217,280 216,277 215,274 214,271 213,267 212,262 211,256 210,250 209,246 208,239 207,229 206,224 205,221 205,208 204,204 203,201 203,196 205,193 208,191 212,189 215,188 219,187 227,188 231,190 233,193 233,202 232,205 229,210 227,214 227,221 228,225 229,228 230,231 231,235 232,238 233,241 234,244 236,249 238,253 240,257 242,260 244,263 247,267 252,271 255,271 259,269 263,266 267,264 270,263 275,261 281,258 285,256 289,254 293,252 298,250 301,248 306,243 298,233 294,228 292,224 291,221 290,218 288,213 285,210 282,208 279,206 274,201 272,198 270,195 269,192 267,188 266,182 266,173 267,168 268,165 269,162 271,158 274,153 282,144 289,138 292,137 295,136 298,135 301,134 305,133 313,133 319,134 322,135 327,137 332,139 335,140 339,142 344,145 348,149 350,152 354,157 357,162 358,165 359,169 359,186 358,192 357,206 355,210 353,215 356,217 359,216 363,214 367,212 370,210 376,207 383,206 388,205 393,203 397,202 400,201 404,200 408,199 412,198 419,197 425,196 433,196 438,196 442,195 446,194 450,193 457,192 465,192 469,193 474,197 477,200 479,203 482,208 484,212 486,216 487,219 488,222 489,225 490,228 491,232 492,237 493,252 494,256 495,259 496,263 497,266 498,269 499,272 501,277 503,281 507,283 512,280 513,292 516,294 514,312 511,314 499,314 496,312 493,314 493,318 496,320 499,318 511,330 512,341 513,349 514,353 517,355 520,354 524,352 528,350 531,349 535,348 539,346 543,341 544,338 545,329 546,320 547,317 547,314 544,312 588,315 592,311 601,311 589,321 590,334 591,350 592,354 595,356 601,355 604,355 608,357 611,358 614,357 619,349 620,346 621,343 622,335 622,315 618,312 620,294 625,293 638,293 501,348 501,352 498,354 494,353 490,355 487,359 485,362 484,365 481,366 477,365 472,364 451,364 445,365 441,364 440,361 439,346 440,338 444,335 448,333 451,332 454,331 458,330 465,329 474,329 479,330 482,331 491,334 494,337 495,340 497,344 461,293 458,294 462,290 464,285 466,281 468,278 469,275 470,272 471,269 471,260 470,253 469,249 468,245 467,241 466,238 465,235 462,230 459,228 455,229 450,231 447,232 444,234 441,237 439,241 438,244 436,247 432,251 427,255 424,259 422,262 421,266 421,270 422,281 423,287 424,290 427,292 436,293 447,294 546,115 550,110 553,103 555,100 557,96 556,87 550,81 546,86 542,88 540,92 545,97 526,93 521,91 520,85 520,75 521,71 526,69 528,76 528,61 528,57 532,59 534,56 532,53 537,51 541,45 555,50 559,50 558,46 563,52 566,51 569,50 571,62 567,62 562,62 559,64 558,68 557,73 556,77 551,72 552,64 553,58 554,54 560,30 559,26 562,24 565,27 564,11 564,6 590,50 600,50 619,62 627,62 630,50 636,50 636,85 631,88 634,94 592,88 587,87 585,91 587,94 590,94 170,153 164,152 270,442 273,441 278,440 282,440 288,441 291,443 291,446 289,451 287,456 284,457 281,457 270,456 266,444 262,446 258,448 254,453 257,455" stroke="black" stroke-width="3" style="fill-opacity:0;" /><polyline points="130,108 128,112 127,116 126,120 126,130 127,135 128,138 129,141 131,145 133,148 135,151 139,155 144,160 146,164 149,169 152,173 162,184 163,187 158,192 153,194 149,196 146,199 138,207 134,212 130,217 126,222 122,226 117,230 114,231 111,230 103,222 101,219 99,216 97,211 98,208 102,202 103,198 102,194 99,191 93,187 90,186 82,186 78,187 74,188 69,191 67,194 66,197 66,200 67,203 69,207 71,211 73,214 75,218 77,222 78,225 79,228 80,231 82,235 84,240 86,244 88,248 90,251 92,254 95,258 100,263 103,265 107,267 112,268 119,267 124,265 128,263 132,261 135,259 138,258 151,258 158,264 163,270 165,273 167,276 169,279 171,282 173,285 174,288 176,292 178,296 181,301 183,304 185,308 186,311 187,314 188,317 190,320 193,324 193,330 193,338 193,342 192,359 191,362 190,365 189,368 188,371 187,376 187,379 188,382 189,385 191,390 193,393 196,395 200,396 203,400 199,403 194,405 189,411 188,415 188,423 189,426 190,429 192,432 196,438 197,444 198,458 204,465 207,467 210,469 210,473 209,477 249,473 248,463 248,455 249,451 252,449 258,449 265,449 269,448 275,447 282,447 289,447 294,450 296,453 297,460 298,463 300,467 301,470 302,476 325,474 326,470 326,445 325,442 324,439 324,429 324,423 323,418 322,415 321,411 316,405 313,403 310,402 307,400 304,399 300,398 295,399 292,400 288,402 285,403 278,403 274,402 271,401 267,400 263,399 258,396 258,393 259,390 262,385 266,382 283,366 287,364 290,362 294,358 296,355 297,352 299,347 300,344 301,341 301,332 300,328 298,323 298,319 298,305 297,302 293,296 291,293 290,290 289,284 288,278 287,274 286,271 285,268 283,263 281,258 279,253 277,248 275,243 274,240 272,235 270,230 269,227 268,224 267,221 266,214 266,209 267,206 273,202 274,199 276,194 279,192 283,191 290,190 293,191 294,194 296,197 297,200 299,204 301,209 303,213 305,218 306,221 307,224 308,227 309,230 310,234 311,239 311,242 310,245 306,251 304,255 304,263 313,272 321,272 325,271 329,269 332,267 335,265 337,261 337,255 336,252 335,249 334,245 333,242 332,238 331,233 330,227 329,220 328,213 327,207 326,202 325,197 324,193 323,189 322,186 321,183 320,180 319,177 317,174 315,170 311,166 308,164 305,163 302,162 299,161 296,160 289,159 280,158 276,157 257,156 239,156 234,156 225,156 220,157 217,158 213,158 210,156 210,145 211,137 211,124 210,121 209,118 207,115 205,112 203,109 201,106 197,102 193,99 189,97 184,95 180,93 177,92 174,91 170,90 160,90 157,91 154,92 150,93 147,94 143,96 139,99 82,314 85,316 83,319 80,320 73,314 69,321 62,321 63,315 58,316 55,318 210,396 215,400 219,399 222,398 227,392 224,390 221,390 216,391" stroke="black" stroke-width="3" style="fill-opacity:0;" /><polyline points="131,106 129,109 127,112 126,115 125,120 125,131 126,136 127,139 129,144 131,147 133,150 143,161 146,167 148,170 151,174 162,187 158,191 154,193 151,194 148,196 138,206 135,210 131,215 127,220 123,224 115,230 110,228 106,224 104,221 102,218 99,213 99,208 102,204 104,200 105,196 104,192 101,189 96,186 93,185 82,185 78,186 75,187 69,193 68,197 69,201 71,206 73,210 75,213 76,216 78,220 79,223 80,226 81,229 82,232 84,237 85,240 87,244 89,248 91,251 93,254 96,258 100,262 106,266 110,267 114,267 118,266 121,265 126,263 130,261 134,259 138,257 142,256 146,256 150,257 160,266 164,271 166,274 168,277 170,280 172,283 173,286 175,290 177,294 179,298 181,301 183,305 185,309 187,314 188,317 190,320 193,324 193,329 192,358 191,361 190,364 189,367 188,371 187,375 187,379 188,382 190,387 191,390 195,395 200,396 203,400 199,403 196,405 194,408 193,411 192,415 192,427 193,430 196,436 197,439 198,456 199,459 204,464 207,466 210,469 210,474 250,474 249,464 249,456 253,453 256,452 270,452 274,453 278,454 282,455 291,456 295,459 296,462 297,468 299,473 300,476 326,478 327,470 327,464 326,455 325,445 324,442 323,439 323,427 322,422 318,416 313,411 310,409 307,408 303,406 299,406 295,407 292,408 287,410 282,410 278,409 275,408 272,407 269,406 266,405 263,404 258,401 258,398 261,392 262,389 263,385 267,382 270,380 278,372 284,366 288,364 291,362 294,359 296,355 298,350 299,347 300,344 301,339 301,334 300,330 299,327 298,324 298,319 298,307 297,303 295,299 291,293 290,288 289,283 288,280 287,276 286,273 285,270 284,267 282,262 280,257 278,252 277,249 275,244 274,241 272,236 271,233 269,228 268,225 267,222 266,215 266,208 268,205 273,200 275,195 279,192 283,191 289,190 292,191 294,195 295,198 297,201 298,204 300,208 302,213 304,217 305,220 306,223 307,226 308,229 309,232 310,236 310,245 307,250 304,255 304,262 313,272 323,272 328,270 331,268 335,265 337,262 337,255 336,252 335,249 334,246 333,243 332,239 331,236 330,230 329,223 328,217 327,210 326,205 325,200 324,195 323,191 322,188 321,185 320,182 319,179 318,176 315,171 312,167 308,164 305,163 302,162 299,161 296,160 289,159 279,158 275,157 253,156 240,156 221,157 218,158 213,158 210,156 210,141 210,124 209,120 207,116 204,112 202,109 197,104 193,100 190,98 187,97 182,95 178,93 175,92 171,91 163,90 158,91 155,92 151,93 148,94 145,95 140,98 135,102 84,314 87,316 83,320 78,321 70,321 72,314 65,315 59,316 56,319 210,395 210,398 213,400 217,400 220,399 224,397 228,394 225,390 220,390 216,391" stroke="black" stroke-width="3" style="fill-opacity:0;" /><polyline points="336,76 334,79 332,82 330,85 329,88 328,91 327,100 327,108 328,111 329,114 330,117 333,122 340,130 342,133 344,136 346,140 349,145 351,148 354,152 357,157 358,160 359,163 359,167 355,171 352,173 349,175 344,179 342,182 340,186 339,189 338,193 337,196 336,200 335,203 334,207 333,211 332,216 331,221 330,227 329,231 329,235 334,241 338,245 338,252 337,255 335,259 334,262 332,265 331,268 329,272 328,275 326,280 325,283 324,286 321,292 319,295 317,299 315,302 313,305 308,308 304,309 300,311 296,316 296,327 297,330 300,335 305,339 310,339 316,334 324,325 326,322 329,318 332,316 335,318 335,322 334,326 333,329 332,332 331,335 330,338 329,342 328,345 326,350 325,353 324,356 323,362 323,368 323,391 323,442 324,445 325,448 326,451 327,454 329,457 331,460 337,466 339,469 379,461 380,464 381,467 384,468 387,466 390,460 393,456 396,454 399,453 395,463 399,464 403,464 406,463 413,455 410,453 423,452 423,449 425,444 426,441 427,435 428,428 429,423 430,415 431,410 432,406 433,401 434,395 435,391 438,387 441,381 437,377 437,374 441,371 445,370 449,370 452,370 456,367 456,355 456,348 457,342 458,336 459,329 460,324 461,319 462,315 463,311 464,306 465,300 466,293 466,286 466,279 467,276 468,267 467,253 466,243 466,229 467,226 467,218 466,215 464,211 463,208 462,204 461,201 460,198 459,195 458,192 456,189 455,186 452,181 450,178 448,175 446,172 444,169 442,166 438,162 435,160 432,158 429,157 424,155 421,154 418,153 414,152 411,151 407,150 404,149 400,146 400,142 403,138 406,133 407,126 408,123 409,120 410,117 411,114 412,111 413,108 413,94 412,90 410,86 407,81 405,78 403,75 398,70 395,68 392,67 389,65 386,63 382,61 379,60 374,59 365,59 360,60 356,61 352,62 342,70 256,297 248,298 382,386 385,388 390,388 393,387 396,385 392,380 387,381 383,457 428,458 430,461 432,465 434,469 435,472 436,475 437,478" stroke="black" stroke-width="3" style="fill-opacity:0;" /><polyline points="402,98 400,101 398,105 397,108 397,116 398,120 399,123 401,128 403,132 405,137 408,142 410,145 411,148 412,154 413,160 414,163 415,166 417,171 418,174 424,180 424,184 422,187 417,193 415,196 412,203 411,206 408,212 406,215 404,218 402,221 400,224 398,227 396,230 394,233 391,238 389,242 386,243 380,243 374,239 373,228 370,224 365,218 362,216 357,216 354,217 350,219 341,229 341,238 343,242 352,252 354,255 356,258 358,261 360,264 363,268 373,278 376,280 381,283 384,284 388,285 396,285 401,284 405,286 405,290 404,300 403,305 402,310 401,324 400,331 399,334 398,337 395,342 392,346 390,350 389,353 388,358 387,361 385,366 384,369 383,372 383,379 386,381 391,381 394,385 391,387 387,387 384,386 381,387 375,388 367,395 365,398 363,401 361,404 358,408 356,411 354,414 352,417 350,420 349,423 348,426 347,429 347,459 348,462 350,467 350,472 349,475 439,476 440,473 442,469 442,454 441,450 444,446 447,444 450,442 454,438 455,435 458,431 462,428 465,427 470,424 473,422 476,420 479,418 482,416 491,406 492,403 493,400 494,396 495,393 497,389 503,384 508,382 512,379 515,374 516,361 517,357 518,350 519,343 520,337 521,330 522,320 523,309 524,295 524,277 525,270 526,257 527,250 528,247 532,245 537,247 542,251 545,253 548,255 551,257 554,258 558,259 565,259 569,258 572,257 575,256 579,252 579,244 578,241 577,238 575,235 569,229 564,225 560,221 553,213 529,189 525,186 521,183 518,181 515,179 512,177 509,175 505,173 501,171 497,169 493,167 490,165 485,161 482,158 482,155 484,152 487,147 488,144 489,141 490,136 491,130 491,116 490,108 489,105 487,101 485,98 483,95 475,87 471,85 468,84 465,82 462,81 457,79 454,78 451,77 438,77 434,78 429,80 424,82 418,85 415,87 411,90 406,94 278,296 273,299 262,299 261,294 255,297" stroke="black" stroke-width="3" style="fill-opacity:0;" /><polyline points="89,168 87,172 87,175 88,178 94,184 103,185 109,186 113,186 126,186 130,187 133,188 138,190 141,191 145,193 148,194 151,195 158,195 161,197 166,201 169,203 172,205 172,219 172,227 173,232 174,235 175,238 177,241 180,244 183,238 184,231 185,226 186,211 190,208 194,208 204,209 221,210 229,211 236,212 242,213 246,214 249,215 255,220 258,224 261,226 264,228 270,234 272,237 274,241 276,245 277,248 278,251 279,255 280,258 281,262 282,266 283,270 284,274 285,278 286,282 287,286 288,289 289,292 290,296 291,304 292,310 293,315 294,319 295,324 296,327 297,331 298,334 299,338 300,354 301,357 301,363 298,369 296,372 295,375 294,378 293,382 292,391 291,395 290,398 289,403 288,407 287,412 286,418 285,424 284,432 283,443 282,453 281,460 281,467 282,471 283,474 284,477 336,472 339,467 341,462 343,458 344,455 346,450 347,447 348,444 350,439 352,435 353,432 355,429 356,426 359,422 362,420 365,421 367,425 369,428 371,431 373,434 375,437 377,440 379,443 382,448 384,451 392,459 394,464 395,467 396,470 398,474 399,477 405,462 401,458 401,455 404,452 408,450 415,449 423,448 427,447 432,444 434,441 434,432 433,419 432,408 432,387 433,384 434,381 434,376 437,371 439,367 439,362 438,356 437,352 436,349 435,346 434,343 432,340 430,336 428,332 427,329 426,326 425,323 424,318 423,314 422,310 421,307 420,304 419,298 418,293 417,290 415,286 413,282 412,279 411,276 410,273 410,254 414,252 419,253 423,254 436,254 441,253 447,252 451,251 457,245 457,236 455,231 453,227 451,223 449,220 447,217 430,200 422,193 413,185 408,181 404,178 401,176 398,174 395,172 390,169 387,168 384,167 379,166 372,165 359,164 351,163 348,161 348,157 349,154 350,145 351,142 352,138 353,135 354,132 354,116 353,111 352,108 350,105 348,102 345,98 340,92 336,89 332,87 329,86 324,83 320,81 317,80 313,79 303,79 299,80 295,81 291,82 288,83 278,91 273,96 271,99 268,104 266,108 265,111 264,115 264,132 265,135 266,138 268,142 270,145 273,149 281,158 283,161 286,165 288,169 284,173 274,174 267,175 262,176 257,177 251,178 242,179 234,180 227,180 217,179 213,178 210,177 207,176 204,175 200,174 192,173 188,172 185,170 184,167 183,161 180,157 177,155 174,158 173,161 172,167 170,170 165,173 164,176 161,177 152,171 146,170 137,169 125,169 122,170 118,171 110,165 107,163 104,161 100,160 95,162 186,297 186,300 190,302 193,303 197,304 201,305 197,292 194,293 191,294 203,291 208,291 216,292 219,293 223,294 226,295 229,296 232,298 226,303 221,304 216,305 212,401 215,402 217,405 218,408 221,414 219,418 213,422 209,425 205,430 202,432 194,431 193,425 194,422 195,419 196,416 197,411 207,401 383,386 387,388 392,387 395,385 391,381 386,382 414,380 417,382 420,382 423,380 420,376 417,376 430,456 427,457 421,462 416,466 411,466 435,456 439,461 441,464 443,467 448,473 450,477" stroke="black" stroke-width="3" style="fill-opacity:0;" /><polyline points="266,296 275,297 280,293 288,298 297,292 306,299 310,300 313,302 313,305 311,310 309,315 308,318 306,323 305,326 303,329 301,333 299,337 297,340 296,343 294,346 292,350 290,355 289,358 288,361 288,367 295,375 298,377 304,380 307,382 306,387 305,390 304,394 303,398 302,401 300,406 299,409 297,413 292,420 290,423 288,426 285,431 280,437 278,440 276,444 274,447 273,450 271,453 269,457 266,462 265,465 263,469 261,474 260,478 305,477 307,474 319,461 322,457 324,454 326,451 328,448 331,444 334,440 339,434 345,427 367,404 360,394 356,395 352,391 356,387 359,386 363,386 366,388 377,393 379,390 382,385 387,382 392,382 395,384 399,390 401,393 403,396 405,399 408,404 410,407 412,410 414,413 415,416 417,419 418,422 419,425 420,429 421,433 423,438 425,441 427,445 429,448 429,455 428,465 467,461 467,452 466,449 466,440 468,436 469,433 469,427 468,422 467,417 466,413 465,408 464,398 463,393 462,389 461,385 460,382 456,377 452,377 448,378 441,379 437,377 437,374 440,372 444,371 454,368 454,361 453,358 453,351 457,347 468,338 471,340 474,344 476,347 483,354 486,356 491,359 494,360 502,360 506,357 510,351 512,346 513,343 514,339 515,321 515,280 515,274 517,270 519,267 524,263 528,262 534,261 537,260 540,258 548,250 550,247 551,244 553,240 554,226 554,219 553,216 551,212 549,208 547,203 545,200 536,191 533,189 529,187 526,186 523,185 518,184 511,184 497,185 494,186 491,187 488,188 485,190 481,192 473,200 471,203 469,206 468,209 466,213 465,216 464,219 463,225 462,228 459,230 448,230 422,230 410,231 406,232 403,233 400,235 395,237 392,238 387,240 382,242 379,243 375,245 370,247 367,248 364,250 360,252 355,254 351,256 347,258 343,260 340,262 336,265 332,270 330,273 328,277 326,280 325,283 323,287 317,291 466,477" stroke="black" stroke-width="3" style="fill-opacity:0;" /></svg>